<?xml version="1.0" standalone="no"?>
<!DOCTYPE svg PUBLIC "-//W3C//DTD SVG 20010904//EN"
 "http://www.w3.org/TR/2001/REC-SVG-20010904/DTD/svg10.dtd">
<svg version="1.0" xmlns="http://www.w3.org/2000/svg"
 width="7730.000000pt" height="7730.000000pt" viewBox="0 0 7730.000000 7730.000000"
 preserveAspectRatio="xMidYMid meet">

<g transform="translate(0.000000,7730.000000) scale(0.100000,-0.100000)"
fill="#000000" stroke="none">
<path d="M17285 56903 c-135 -12 -342 -71 -459 -130 -283 -142 -494 -384 -583
-670 l-28 -88 0 -17782 c0 -9780 3 -17784 7 -17788 5 -5 6821 284 7538 320 52
2 160 7 240 10 80 3 183 8 230 10 47 2 159 7 250 11 91 3 289 12 440 18 l275
13 4815 -168 c5662 -197 5105 -178 5260 -184 69 -3 184 -7 255 -10 72 -2 195
-7 275 -10 80 -3 204 -8 275 -10 72 -3 900 -33 1840 -67 941 -33 1769 -62
1840 -65 143 -6 170 -14 209 -66 45 -59 59 -113 59 -227 1 -127 -22 -195 -83
-255 l-40 -39 -147 -8 c-90 -5 -150 -13 -154 -20 -11 -17 -144 -457 -193 -639
-437 -1611 -400 -3019 109 -4204 l51 -120 35 0 c19 1 93 5 165 9 l131 8 37
-33 c46 -40 70 -86 86 -164 32 -156 -36 -353 -133 -384 -17 -6 -468 -44 -1002
-86 -533 -41 -1010 -80 -1060 -85 -49 -6 -727 -60 -1505 -120 -778 -61 -1440
-112 -1470 -115 -204 -18 -3854 -304 -3970 -311 -47 -3 -94 -7 -106 -9 -11 -3
-72 -7 -135 -11 -63 -3 -118 -10 -123 -14 -5 -5 -15 -6 -22 -3 -8 3 -27 0 -44
-6 -18 -6 -28 -6 -25 -1 10 16 -28 11 -53 -6 -12 -8 -22 -12 -22 -8 0 5 -5 3
-12 -4 -7 -7 -16 -12 -22 -12 -5 0 -1 7 10 15 18 13 16 14 -21 13 -22 -1 -34
-3 -27 -6 19 -6 14 -18 -8 -18 -11 0 -20 3 -20 6 0 3 -15 5 -32 5 l-33 0 -3
-208 -2 -207 44 2 c27 1 43 5 39 11 -4 6 4 7 21 3 21 -5 26 -3 26 11 0 10 -4
14 -8 8 -4 -5 -20 -11 -35 -12 l-29 -2 23 20 c21 18 24 18 47 3 17 -11 27 -13
35 -5 8 8 8 11 -2 11 -7 0 -10 4 -7 8 3 5 15 8 28 7 13 -1 26 3 30 9 5 8 8 7
8 -2 0 -10 5 -10 20 -2 11 6 25 8 30 5 6 -4 11 55 12 162 l2 168 6 -165 c5
-173 4 -200 -12 -200 -5 0 -7 4 -4 9 11 17 -19 18 -32 2 -8 -10 -11 -10 -6 -2
5 9 3 12 -4 7 -7 -4 -22 -9 -34 -11 -12 -3 -28 -11 -37 -19 -12 -13 -9 -14 25
-9 21 3 44 5 51 6 7 0 10 4 7 9 -7 11 0 10 31 -4 23 -10 28 -10 36 5 6 9 15
17 22 17 7 0 6 -4 -3 -10 -25 -15 -8 -17 80 -9 47 4 121 11 165 14 84 6 1164
94 4310 350 1051 86 2490 203 3198 260 708 58 1299 105 1313 105 l24 0 -40
-80 c-48 -95 -131 -282 -128 -286 6 -5 249 -74 363 -103 147 -36 392 -84 540
-105 305 -43 414 -50 800 -50 l380 0 4560 387 c2508 212 4592 391 4630 397
102 15 221 76 300 154 186 182 217 482 73 703 -88 137 -164 184 -455 279 -125
41 -833 273 -1572 516 -740 242 -1392 460 -1450 485 -662 277 -1165 838 -1374
1533 -37 122 -662 3158 -652 3168 5 6 5730 251 5872 252 l73 0 3 -3893 2
-3892 23 -100 c123 -535 545 -916 1105 -999 156 -24 298 -20 672 19 324 33
402 45 302 45 -121 0 -381 72 -531 147 -294 146 -531 405 -637 694 -71 192
-72 203 -76 829 -2 311 0 559 5 552 12 -17 1027 -31 1059 -14 16 9 22 9 26 -2
4 -10 -1 -12 -16 -9 -17 4 -19 2 -8 -5 11 -8 9 -12 -10 -23 -13 -7 -28 -12
-32 -11 -5 1 -6 -2 -3 -6 7 -12 -28 -44 -39 -35 -4 5 -5 3 -2 -3 4 -7 -3 -24
-15 -40 -12 -15 -23 -33 -24 -38 -1 -6 -7 -31 -13 -56 -6 -28 -11 -193 -11
-431 0 -449 2 -462 79 -539 53 -53 118 -80 192 -80 26 0 534 47 1129 105 864
85 1092 110 1134 126 88 32 164 110 194 197 7 22 12 170 13 447 0 228 4 413 9
410 4 -3 10 2 14 10 5 13 -4 19 -24 17 -3 0 -6 11 -7 26 0 15 1 19 4 9 2 -9 8
-15 13 -12 5 3 12 0 15 -5 10 -16 14 -60 5 -55 -11 7 -20 -19 -12 -32 4 -6
118 -13 293 -17 233 -6 288 -5 292 6 3 7 6 -146 6 -341 1 -240 5 -366 13 -393
13 -45 77 -122 119 -143 70 -37 109 -37 474 -1 193 18 357 34 365 34 8 0 83 7
165 16 83 9 377 38 655 65 553 54 561 56 640 127 38 35 89 109 99 144 2 8 6
118 8 244 3 126 8 224 12 217 6 -9 81 -14 284 -18 l276 -6 4 34 c2 19 5 -56 5
-166 1 -110 7 -218 13 -240 6 -22 10 -42 9 -44 -7 -11 91 -93 133 -111 46 -20
62 -22 181 -16 72 3 141 8 154 12 30 9 29 -9 -8 -159 -64 -256 -127 -427 -238
-653 -40 -79 -65 -140 -58 -142 13 -3 4672 473 4786 489 454 64 860 364 1074
794 76 154 122 305 150 495 3 19 12 2107 20 4640 8 2533 20 5899 27 7481 12
3062 13 2974 -36 3166 -112 440 -439 785 -860 908 -162 47 -251 55 -617 55
l-338 0 -2 11698 -3 11697 -28 90 c-84 270 -249 478 -491 623 -165 99 -321
138 -594 148 l-185 7 6 -24 c24 -96 27 -330 27 -2401 l0 -2198 90 0 90 0 0
-9825 0 -9825 -297 0 c-855 0 -8750 -42 -9298 -49 -594 -9 -647 -11 -743 -30
-531 -111 -963 -474 -1131 -954 -66 -189 -73 -244 -78 -659 l-5 -378 -62 0
c-34 0 -372 -9 -751 -20 -793 -23 -2177 -62 -14930 -425 -5126 -145 -9390
-267 -9475 -270 -85 -2 -229 -7 -320 -10 -91 -2 -241 -7 -335 -10 -93 -3 -267
-7 -385 -10 -118 -3 -267 -7 -330 -10 -63 -3 -221 -7 -350 -10 -129 -3 -284
-8 -345 -10 -60 -2 -220 -7 -355 -10 -135 -3 -297 -8 -360 -10 -63 -2 -209 -7
-325 -10 -115 -3 -282 -8 -370 -10 -88 -3 -322 -9 -520 -15 -198 -5 -432 -12
-520 -15 -88 -3 -484 -14 -880 -25 -396 -11 -787 -22 -870 -25 -769 -27 -1307
-37 -1396 -26 -323 39 -601 186 -784 414 -76 94 -154 245 -187 362 l-23 80 -2
10980 c-2 6039 1 11860 6 12935 9 2187 2 1995 81 2166 160 347 514 575 930
601 117 7 4284 -147 4288 -159 2 -4 9 -5 15 -1 7 3 9 3 5 -2 -7 -7 105 -183
126 -197 6 -4 7 -8 3 -8 -5 0 0 -12 11 -27 22 -32 98 -158 132 -221 17 -30 26
-39 33 -30 6 9 7 7 3 -6 -4 -12 8 -45 32 -90 34 -63 74 -147 181 -378 17 -37
31 -72 31 -78 0 -6 7 -25 16 -42 12 -24 100 -257 129 -345 3 -8 18 -6 53 7 27
11 52 17 55 14 3 -4 11 -2 19 2 15 10 75 7 148 -8 122 -24 234 -107 287 -216
24 -49 28 -69 28 -142 0 -112 -26 -170 -106 -244 -67 -62 -135 -92 -233 -102
-60 -6 -65 -9 -61 -28 2 -11 9 -43 14 -71 59 -278 110 -672 136 -1045 9 -124
18 -258 21 -297 l6 -73 84 0 c46 0 2443 -68 5327 -150 7574 -217 16283 -466
17292 -495 479 -13 935 -27 1015 -30 80 -2 242 -7 360 -10 118 -3 283 -7 365
-10 83 -3 231 -7 330 -10 99 -3 257 -7 350 -10 94 -3 253 -7 355 -10 102 -3
257 -7 345 -10 88 -3 248 -7 355 -10 107 -3 260 -7 340 -10 135 -4 216 -7 730
-20 107 -3 258 -8 335 -10 77 -3 217 -7 310 -10 440 -13 521 -15 680 -20 170
-6 4690 -135 4707 -135 5 0 7 924 5 2118 l-3 2117 -22 115 c-59 307 -177 584
-350 817 -36 48 -119 141 -183 207 l-118 118 -173 -7 c-197 -8 -283 -23 -383
-70 -230 -106 -373 -317 -400 -593 l-7 -72 -92 5 c-50 4 -986 42 -2081 86
-4729 188 -15101 606 -15760 634 -187 8 -959 39 -1715 70 -10351 415 -13363
536 -13565 545 -132 5 -978 39 -1880 75 -902 36 -1982 78 -2400 95 -731 29
-811 31 -900 23z m5977 -1736 c-12 -13 -29 -24 -37 -24 -17 0 -9 12 8 12 7 1
11 7 9 14 -1 7 2 10 7 7 5 -4 12 -2 16 4 3 5 9 10 12 10 4 0 -3 -10 -15 -23z
m153 3 c-3 -5 -12 -10 -18 -10 -7 0 -6 4 3 10 19 12 23 12 15 0z m321 -12 c3
-4 -1 -5 -10 -4 -8 1 -18 5 -22 8 -3 4 1 5 10 4 8 -1 18 -5 22 -8z m41347
-25678 c109 -34 194 -109 245 -217 l27 -58 3 -1310 c1 -845 -1 -1329 -8 -1364
-31 -169 -169 -309 -335 -341 -36 -7 -1862 -66 -4645 -151 -2522 -76 -5048
-153 -5615 -171 -767 -23 -1045 -29 -1090 -21 -135 23 -262 117 -321 238 l-29
60 0 1445 0 1445 34 69 c55 113 171 209 296 246 30 9 1451 30 5440 80 2970 37
5520 68 5666 69 242 1 273 -1 332 -19z m-7516 -14681 c-8 -13 -13 -15 -18 -7
-10 15 -4 25 15 25 11 0 12 -4 3 -18z m149 -4 c-1 -8 -6 -18 -11 -22 -4 -4 -5
-2 -1 5 4 7 2 12 -6 12 -9 0 -9 3 2 10 19 12 19 13 16 -5z m-131 -4 c-3 -6 3
-14 12 -20 10 -6 13 -11 7 -11 -15 0 -36 25 -27 33 10 10 15 8 8 -2z m1585 -5
c0 -2 -7 -7 -16 -10 -8 -3 -12 -2 -9 4 6 10 25 14 25 6z m20 -41 c0 -12 -19
-12 -23 0 -4 9 -1 12 9 8 7 -3 14 -7 14 -8z m-2225 -23 c-3 -3 -11 0 -18 7 -9
10 -8 11 6 5 10 -3 15 -9 12 -12z m110 9 c-9 -8 -36 -10 -30 -2 2 4 11 8 20 8
8 0 13 -3 10 -6z m-198 -16 c0 -8 -4 -12 -9 -9 -5 3 -6 10 -3 15 9 13 12 11
12 -6z m-1172 -93 c-3 -3 -11 0 -18 7 -9 10 -8 11 6 5 10 -3 15 -9 12 -12z
m-92 -7 c4 -8 3 -16 -1 -19 -4 -3 -9 4 -9 15 -2 23 3 25 10 4z m91 -13 c3 -5
-1 -9 -9 -9 -8 0 -12 4 -9 9 3 4 7 8 9 8 2 0 6 -4 9 -8z m-878 -31 c-9 -14 30
-42 50 -35 16 5 17 4 3 -5 -9 -6 -26 -9 -38 -6 -11 2 -21 -1 -21 -7 0 -6 -3
-8 -6 -5 -4 4 -1 13 5 21 8 10 9 16 1 21 -10 6 -5 25 6 25 3 0 3 -4 0 -9z m32
-16 c-3 -3 -9 2 -12 12 -6 14 -5 15 5 6 7 -7 10 -15 7 -18z m1806 7 c3 -5 -1
-9 -9 -9 -8 0 -12 4 -9 9 3 4 7 8 9 8 2 0 6 -4 9 -8z m-1654 -6 c0 -2 -8 -10
-17 -17 -16 -13 -17 -12 -4 4 13 16 21 21 21 13z m-44 -18 c3 -4 -1 -5 -10 -4
-8 1 -18 5 -22 8 -3 4 1 5 10 4 8 -1 18 -5 22 -8z m1034 8 c0 -2 -7 -7 -16
-10 -8 -3 -12 -2 -9 4 6 10 25 14 25 6z m-1260 -31 c14 -19 14 -19 -2 -6 -10
7 -18 18 -18 24 0 6 1 8 3 6 1 -2 9 -13 17 -24z m27 8 c0 -9 -4 -10 -14 -2 -7
6 -13 12 -13 14 0 1 6 2 13 2 8 0 14 -6 14 -14z m-897 -29 c0 -8 -19 -13 -24
-6 -3 5 1 9 9 9 8 0 15 -2 15 -3z m94 -6 c-3 -4 1 -8 8 -8 9 0 10 -3 2 -8 -6
-4 -10 -14 -9 -23 2 -9 -3 -16 -10 -16 -10 0 -11 7 -4 25 7 17 6 23 -3 20 -6
-2 -12 -12 -14 -22 -3 -22 -12 -31 -21 -22 -4 4 -2 16 5 26 10 16 10 20 0 20
-10 0 -10 2 -1 8 16 10 53 10 47 0z m143 -15 c1 -16 -1 -22 -4 -15 -2 6 -9 9
-15 6 -6 -4 -5 2 1 15 15 27 16 27 18 -6z m56 20 c-7 -2 -13 -9 -13 -14 0 -6
5 -7 12 -3 7 5 8 3 3 -5 -5 -9 -11 -9 -17 -3 -12 12 -2 32 15 31 9 0 9 -2 0
-6z m81 -6 c12 13 35 11 40 -3 3 -8 12 -11 23 -7 10 3 15 3 12 -1 -10 -11 -50
-16 -44 -5 6 9 -49 4 -66 -6 -6 -4 -6 3 0 34 1 2 7 -2 14 -8 8 -6 17 -8 21 -4z
m116 -6 c0 -4 -7 -8 -15 -8 -16 0 -20 9 -9 20 8 8 24 -1 24 -12z m135 9 c-3
-5 -12 -10 -18 -10 -7 0 -6 4 3 10 19 12 23 12 15 0z m1554 -7 c0 -11 -3 -13
-6 -5 -2 6 -9 12 -14 12 -6 0 -7 -5 -3 -12 4 -7 3 -8 -4 -4 -19 11 -14 26 8
26 13 0 20 -6 19 -17z m607 -19 c1 -9 0 -13 -4 -10 -3 4 -7 14 -8 22 -1 9 0
13 4 10 3 -4 7 -14 8 -22z m-2756 -27 c0 -5 -7 -7 -15 -4 -8 4 -17 2 -20 -3
-9 -15 -24 -12 -21 4 1 8 8 22 16 31 13 16 15 16 27 -1 7 -10 13 -22 13 -27z
m102 26 c-6 -2 -10 -9 -6 -14 3 -5 0 -9 -5 -9 -12 0 -14 13 -4 23 3 4 11 7 17
6 6 0 5 -3 -2 -6z m44 -5 c4 -6 3 -8 -4 -4 -5 3 -13 0 -15 -6 -3 -8 -6 -6 -6
5 -1 19 14 23 25 5z m-503 -49 c9 0 17 -5 17 -10 0 -6 -4 -8 -8 -5 -5 3 -20
-1 -35 -9 -16 -8 -29 -10 -33 -4 -3 5 -2 9 3 8 19 -3 27 2 14 10 -8 5 -24 6
-36 1 -15 -6 -22 -4 -22 4 0 8 14 11 41 9 23 -2 49 -3 59 -4z m87 1 c0 -5 -5
-10 -11 -10 -5 0 -7 5 -4 10 3 6 8 10 11 10 2 0 4 -4 4 -10z m-23220 -1004 c0
-2 -7 -9 -15 -16 -13 -11 -14 -10 -9 4 5 14 24 23 24 12z"/>
<path d="M63780 29073 c-52 -2 -105 -8 -117 -15 -73 -37 -68 -207 7 -238 43
-18 564 -3 603 17 59 30 85 120 52 183 -30 58 -41 60 -255 58 -107 -1 -238 -4
-290 -5z"/>
<path d="M64392 28760 c-60 -37 -63 -58 -60 -382 l3 -290 33 -29 c28 -25 40
-29 92 -29 52 0 64 4 92 29 l33 29 5 289 c4 187 2 300 -5 323 -21 72 -122 103
-193 60z"/>
<path d="M63359 28743 c-58 -35 -59 -44 -59 -367 l0 -296 28 -31 c50 -56 165
-51 212 9 19 23 20 42 20 329 l0 305 -34 34 c-30 30 -40 34 -87 34 -32 0 -65
-7 -80 -17z"/>
<path d="M63808 27991 c-165 -7 -178 -15 -186 -105 -6 -68 2 -99 31 -127 22
-21 25 -21 302 -14 306 7 333 12 360 66 24 45 19 119 -9 154 l-24 30 -169 1
c-92 0 -230 -2 -305 -5z"/>
<path d="M64399 27683 c-66 -56 -69 -73 -69 -421 0 -339 1 -348 56 -391 37
-29 74 -26 121 8 87 63 83 43 83 398 0 293 -1 316 -20 352 -41 82 -111 104
-171 54z"/>
<path d="M63363 27620 c-60 -36 -61 -45 -64 -387 -3 -345 -3 -343 64 -383 42
-26 86 -25 128 3 67 44 69 57 69 392 0 280 -1 302 -20 332 -37 61 -116 81
-177 43z"/>
<path d="M63815 26871 c-140 -5 -176 -9 -198 -24 -86 -56 -81 -181 9 -227 41
-21 591 -7 641 17 44 20 73 70 73 123 0 36 -6 48 -39 81 l-39 39 -138 -2 c-77
-1 -216 -4 -309 -7z"/>
<path d="M53860 14456 c-9 -12 -8 -15 8 -13 12 0 18 6 15 14 -6 16 -8 16 -23
-1z"/>
<path d="M30015 42490 c-8 -9 -12 -20 -8 -25 5 -4 1 -6 -8 -3 -9 4 -22 2 -30
-3 -11 -7 -11 -9 -1 -9 7 0 10 -5 6 -11 -13 -21 56 25 71 47 11 18 11 21 -1
21 -8 0 -21 -8 -29 -17z m25 6 c0 -2 -8 -10 -17 -17 -16 -13 -17 -12 -4 4 13
16 21 21 21 13z"/>
<path d="M30065 42491 c-3 -5 -2 -12 3 -15 5 -3 9 1 9 9 0 17 -3 19 -12 6z"/>
<path d="M30057 42454 c5 -14 3 -16 -11 -11 -10 4 -15 3 -11 -3 3 -6 13 -10
21 -10 16 0 19 26 4 35 -6 4 -7 -1 -3 -11z"/>
<path d="M29934 42445 c-4 -8 -10 -13 -14 -10 -5 3 -11 1 -14 -3 -7 -12 41 -9
51 2 5 5 2 6 -6 1 -11 -6 -13 -4 -8 8 3 10 4 17 1 17 -2 0 -7 -7 -10 -15z"/>
<path d="M29881 42418 c0 -9 -11 -24 -23 -32 -17 -12 -25 -13 -37 -3 -14 10
-14 10 -3 -5 22 -27 78 5 69 40 -4 15 -5 15 -6 0z"/>
<path d="M31298 42393 c12 -2 32 -2 45 0 12 2 2 4 -23 4 -25 0 -35 -2 -22 -4z"/>
<path d="M29805 42360 c6 -10 4 -12 -8 -7 -9 3 -18 3 -21 -1 -3 -4 4 -8 14 -9
23 -2 35 13 19 23 -8 5 -9 3 -4 -6z"/>
<path d="M29718 42333 c-15 -32 -52 -46 -42 -16 4 13 3 14 -4 5 -5 -8 -13 -14
-18 -14 -5 1 -8 -6 -6 -14 3 -12 -1 -13 -17 -5 -13 8 -22 8 -26 1 -4 -6 -11
-8 -16 -5 -5 3 -6 -1 -2 -11 5 -15 7 -15 15 0 8 14 12 15 38 1 33 -17 76 -22
50 -6 -8 6 -18 7 -22 5 -4 -3 -8 2 -8 11 0 10 4 13 13 8 21 -13 37 -12 37 3 0
8 4 14 9 14 5 0 11 11 13 25 7 32 2 32 -14 -2z"/>
<path d="M31938 42343 c12 -2 32 -2 45 0 12 2 2 4 -23 4 -25 0 -35 -2 -22 -4z"/>
<path d="M32338 42313 c12 -2 32 -2 45 0 12 2 2 4 -23 4 -25 0 -35 -2 -22 -4z"/>
<path d="M29725 42290 c-3 -5 -1 -10 4 -10 6 0 11 5 11 10 0 6 -2 10 -4 10 -3
0 -8 -4 -11 -10z"/>
<path d="M29758 42278 c13 -12 162 -21 162 -10 0 6 -35 12 -85 14 -46 2 -81 0
-77 -4z"/>
<path d="M29556 42272 c-3 -5 1 -9 9 -9 8 0 12 4 9 9 -3 4 -7 8 -9 8 -2 0 -6
-4 -9 -8z"/>
<path d="M32978 42263 c12 -2 32 -2 45 0 12 2 2 4 -23 4 -25 0 -35 -2 -22 -4z"/>
<path d="M29500 42235 c-7 -8 -17 -12 -24 -8 -6 3 -8 2 -3 -2 4 -5 0 -16 -8
-25 -13 -14 -12 -16 5 -16 10 0 17 2 15 4 -7 8 16 43 24 38 4 -3 8 1 8 9 0 19
-2 19 -17 0z"/>
<path d="M33378 42233 c12 -2 32 -2 45 0 12 2 2 4 -23 4 -25 0 -35 -2 -22 -4z"/>
<path d="M29416 42192 c-3 -5 1 -9 9 -9 8 0 12 4 9 9 -3 4 -7 8 -9 8 -2 0 -6
-4 -9 -8z"/>
<path d="M30758 42193 c23 -2 61 -2 85 0 23 2 4 4 -43 4 -47 0 -66 -2 -42 -4z"/>
<path d="M30338 42183 c12 -2 32 -2 45 0 12 2 2 4 -23 4 -25 0 -35 -2 -22 -4z"/>
<path d="M34338 42153 c12 -2 32 -2 45 0 12 2 2 4 -23 4 -25 0 -35 -2 -22 -4z"/>
<path d="M29275 42130 c-4 -6 1 -7 11 -3 12 4 15 3 10 -5 -4 -7 -2 -10 7 -6 8
3 20 -2 27 -11 11 -13 8 -15 -19 -15 l-32 0 3 -97 3 -96 695 -343 c876 -433
1867 -923 2713 -1342 l657 -325 0 -2452 c0 -1603 4 -2497 10 -2581 38 -465
221 -895 566 -1329 105 -131 390 -419 529 -534 787 -650 1872 -1154 3188
-1482 1769 -439 3821 -511 5707 -198 1995 330 3666 1087 4545 2059 322 355
544 743 639 1115 65 255 59 20 65 2743 l6 2473 1265 625 c1293 640 1566 775
2453 1212 l507 251 0 35 c0 19 -5 57 -11 84 -20 97 12 106 -434 -114 -538
-264 -936 -460 -1318 -648 -174 -86 -358 -176 -408 -201 -50 -25 -97 -45 -105
-45 -8 0 -14 -4 -14 -8 0 -4 -21 -18 -46 -30 -38 -19 -45 -20 -40 -7 3 9 2 13
-4 10 -6 -3 -10 -12 -10 -19 0 -8 -21 -23 -47 -34 -62 -26 -79 -30 -76 -15 2
7 -4 10 -13 6 -13 -5 -13 -7 -2 -14 19 -13 -10 -30 -37 -23 -13 3 -16 2 -8 -3
9 -6 2 -14 -22 -25 -19 -8 -32 -11 -29 -6 4 6 -3 5 -15 -1 -11 -7 -21 -16 -21
-22 0 -6 -4 -7 -10 -4 -5 3 -10 2 -10 -3 0 -8 -122 -68 -143 -70 -4 -1 -15 -9
-24 -17 -10 -11 -25 -14 -42 -10 -19 4 -22 3 -11 -4 12 -8 9 -12 -13 -20 -15
-6 -32 -9 -39 -7 -7 1 -9 1 -5 -2 4 -2 0 -10 -10 -17 -15 -11 -24 -10 -55 6
-45 23 -45 23 -45 4 0 -8 4 -12 9 -9 11 7 48 -5 48 -16 0 -13 -62 -40 -101
-45 -18 -3 -37 -9 -43 -15 -13 -13 0 -13 25 0 10 6 19 8 19 5 0 -3 -14 -12
-32 -19 -32 -14 -62 -11 -53 4 3 4 -2 11 -11 14 -15 6 -15 4 0 -19 17 -25 16
-26 -16 -39 -17 -8 -39 -11 -47 -8 -8 3 -12 1 -8 -5 4 -5 -4 -15 -18 -21 -21
-10 -23 -9 -20 9 4 21 -5 25 -23 7 -9 -9 -18 -9 -37 0 -16 8 -83 12 -180 12
-97 0 -155 4 -157 10 -2 7 -81 14 -198 20 -117 6 -196 13 -198 20 -2 6 -62 10
-163 10 -99 0 -159 4 -159 10 0 6 -60 10 -159 10 -108 0 -161 4 -163 11 -2 7
-59 13 -158 16 -90 4 -158 10 -162 16 -4 7 -83 12 -202 15 -108 3 -196 9 -196
13 0 5 -72 9 -159 9 -108 0 -161 4 -163 11 -2 7 -59 13 -158 16 -85 3 -158 10
-161 16 -4 5 -77 12 -163 15 -86 3 -156 9 -156 13 0 5 -72 9 -159 9 -101 0
-161 4 -163 10 -2 7 -77 15 -188 20 -102 5 -214 14 -250 20 -36 5 -113 10
-172 10 -65 0 -108 4 -108 10 0 6 -60 10 -159 10 -108 0 -161 4 -163 11 -2 7
-59 13 -158 16 -90 4 -158 10 -162 16 -4 7 -83 12 -202 15 -108 3 -196 9 -196
13 0 5 -72 9 -159 9 -108 0 -161 4 -163 11 -2 7 -59 13 -158 16 -85 3 -158 10
-161 16 -4 5 -77 12 -163 15 -86 3 -156 9 -156 13 0 5 -90 9 -200 9 -171 0
-200 2 -200 15 0 13 -24 15 -159 15 -108 0 -161 4 -163 11 -2 7 -59 13 -161
17 -86 2 -157 9 -157 13 0 5 -72 9 -159 9 -101 0 -161 4 -163 10 -2 7 -81 14
-198 20 -117 6 -196 13 -198 20 -2 6 -62 10 -163 10 -99 0 -159 4 -159 10 0 6
-60 10 -159 10 -108 0 -161 4 -163 11 -2 7 -59 13 -158 16 -90 4 -158 10 -162
16 -4 7 -83 12 -202 15 -108 3 -196 9 -196 13 0 5 -72 9 -159 9 -108 0 -161 4
-163 11 -2 7 -59 13 -158 16 -85 3 -158 10 -161 16 -4 5 -77 12 -163 15 -86 3
-156 9 -156 13 0 5 -72 9 -159 9 -101 0 -161 4 -163 10 -2 7 -77 15 -188 20
-102 5 -214 14 -250 20 -36 5 -113 10 -172 10 -65 0 -108 4 -108 10 0 6 -60
10 -159 10 -108 0 -161 4 -163 11 -2 7 -59 13 -158 16 -90 4 -158 10 -162 16
-4 7 -83 12 -202 15 -108 3 -196 9 -196 13 0 5 -72 9 -159 9 -108 0 -161 4
-163 11 -2 7 -59 13 -158 16 -85 3 -158 10 -161 16 -4 5 -77 12 -163 15 -86 3
-156 9 -156 13 0 5 -72 9 -159 9 -113 0 -160 3 -163 12 -3 8 -62 13 -199 16
-112 3 -197 9 -200 14 -4 6 -77 13 -163 16 -86 3 -156 9 -156 13 0 5 -72 9
-159 9 -101 0 -161 4 -163 10 -2 7 -81 14 -198 20 -117 6 -196 13 -198 20 -2
6 -62 10 -163 10 -99 0 -159 4 -159 10 0 6 -60 10 -159 10 -108 0 -161 4 -163
11 -2 7 -59 13 -158 16 -85 3 -158 10 -161 16 -4 5 -77 12 -163 15 -86 3 -156
9 -156 13 0 5 -90 9 -199 9 -137 0 -200 3 -203 11 -2 7 -59 13 -158 16 -85 3
-158 10 -161 16 -4 5 -77 12 -163 15 -86 3 -156 9 -156 13 0 5 -72 9 -159 9
-101 0 -161 4 -163 10 -2 7 -81 14 -198 20 -117 6 -196 13 -198 20 -2 6 -62
10 -163 10 -99 0 -159 4 -159 10 0 6 -60 10 -159 10 -108 0 -161 4 -163 11 -2
7 -59 13 -158 16 -90 4 -158 10 -162 16 -4 7 -83 12 -202 15 -108 3 -196 9
-196 13 0 5 -64 8 -142 8 -79 -1 -133 -4 -120 -6 12 -2 22 -8 22 -13 0 -13
-63 8 -76 25 -6 8 -27 15 -47 15 -29 0 -36 4 -40 23 l-4 22 -2 -23 c-1 -19 -5
-22 -23 -17 -20 6 -19 3 7 -20 l30 -26 -32 17 c-18 10 -34 25 -35 34 0 8 -2
20 -3 25 -2 6 -3 15 -4 20 -1 6 -6 3 -11 -5 -5 -8 -7 -23 -4 -32 4 -13 1 -16
-10 -12 -9 3 -16 10 -16 15 0 5 -3 8 -8 7 -17 -6 -132 57 -129 71 1 7 -5 16
-13 18 -12 4 -12 3 -1 -5 7 -5 9 -12 4 -15 -14 -9 -71 35 -66 51 3 6 0 13 -6
13 -26 3 -30 4 -37 12 -10 10 -32 9 -39 -3z m452 -196 c-3 -3 -12 -4 -19 -1
-8 3 -5 6 6 6 11 1 17 -2 13 -5z m33 -24 c-8 -14 -5 -19 12 -23 12 -4 19 -9
16 -13 -4 -3 -26 5 -49 17 -32 18 -37 25 -23 27 11 2 23 8 28 13 15 14 27 -1
16 -21z m78 -44 c-2 -17 -7 -22 -17 -18 -10 4 -11 7 -3 10 7 2 12 10 12 18 0
8 2 14 5 14 3 0 4 -11 3 -24z m129 -23 c0 -9 -6 -9 -21 -1 -30 15 -30 16 -3
14 13 0 24 -6 24 -13z m-52 -7 c7 3 16 1 20 -5 4 -7 0 -8 -11 -4 -12 4 -15 3
-10 -5 4 -7 2 -12 -3 -12 -6 0 -11 5 -11 10 0 6 -3 9 -7 9 -5 -1 -17 -1 -28 1
l-20 1 20 9 c11 4 24 4 29 0 5 -5 14 -6 21 -4z m1188 -53 c-13 -2 -33 -2 -45
0 -13 2 -3 4 22 4 25 0 35 -2 23 -4z m-1033 -18 c-14 -8 -32 -14 -40 -14 -8 0
-1 6 15 14 40 18 57 18 25 0z m57 9 c-3 -3 -12 -4 -19 -1 -8 3 -5 6 6 6 11 1
17 -2 13 -5z m-2 -24 c-3 -5 -13 -10 -22 -10 -13 0 -13 -3 -3 -15 11 -13 10
-14 -4 -9 -23 9 -20 23 7 34 29 12 29 12 22 0z m10 -29 c3 -5 2 -12 -3 -15 -5
-3 -9 1 -9 9 0 17 3 19 12 6z m50 -41 c3 -6 -1 -7 -9 -4 -18 7 -21 14 -7 14 6
0 13 -4 16 -10z m48 3 c-7 -2 -13 -9 -13 -14 0 -6 5 -7 12 -3 7 4 8 3 4 -4 -9
-15 -36 -4 -36 14 0 8 10 14 23 13 12 0 16 -3 10 -6z m53 -28 c20 -19 5 -19
-20 0 -11 9 -14 15 -7 15 7 0 19 -7 27 -15z m-21 -15 c3 -6 -1 -7 -9 -4 -18 7
-21 14 -7 14 6 0 13 -4 16 -10z m182 -26 c-3 -3 -12 -4 -19 -1 -8 3 -5 6 6 6
11 1 17 -2 13 -5z m-102 -14 c3 -6 -1 -7 -9 -4 -18 7 -21 14 -7 14 6 0 13 -4
16 -10z m65 -30 c22 -11 40 -23 40 -25 0 -5 -79 32 -89 41 -11 10 14 2 49 -16z
m35 2 c-3 -3 -11 0 -18 7 -9 10 -8 11 6 5 10 -3 15 -9 12 -12z m68 -47 c-3 -9
-8 -14 -10 -11 -3 3 -2 9 2 15 9 16 15 13 8 -4z m51 -16 c3 -3 -4 -5 -14 -6
-11 -1 -22 2 -24 6 -5 8 30 8 38 0z m379 -36 c-13 -2 -33 -2 -45 0 -13 2 -3 4
22 4 25 0 35 -2 23 -4z m330 -30 c-7 -2 -19 -2 -25 0 -7 3 -2 5 12 5 14 0 19
-2 13 -5z m150 -10 c-13 -2 -33 -2 -45 0 -13 2 -3 4 22 4 25 0 35 -2 23 -4z
m94 -9 c-3 -3 -12 -4 -19 -1 -8 3 -5 6 6 6 11 1 17 -2 13 -5z m146 -11 c-13
-2 -33 -2 -45 0 -13 2 -3 4 22 4 25 0 35 -2 23 -4z m305 -20 c-21 -2 -55 -2
-75 0 -21 2 -4 4 37 4 41 0 58 -2 38 -4z m815 -20 c-13 -2 -33 -2 -45 0 -13 2
-3 4 22 4 25 0 35 -2 23 -4z m-320 -20 c-13 -2 -33 -2 -45 0 -13 2 -3 4 22 4
25 0 35 -2 23 -4z m-1523 -8 c0 -2 -10 -9 -22 -15 -22 -11 -22 -10 -4 4 21 17
26 19 26 11z m1619 1 c-2 -2 -22 -6 -44 -9 -27 -4 -35 -3 -25 3 14 9 79 15 69
6z m234 -23 c-7 -2 -19 -2 -25 0 -7 3 -2 5 12 5 14 0 19 -2 13 -5z m210 -10
c-24 -2 -62 -2 -85 0 -24 2 -5 4 42 4 47 0 66 -2 43 -4z m180 -20 c-13 -2 -33
-2 -45 0 -13 2 -3 4 22 4 25 0 35 -2 23 -4z m310 -20 c-18 -2 -48 -2 -65 0
-18 2 -4 4 32 4 36 0 50 -2 33 -4z m184 -19 c-3 -3 -12 -4 -19 -1 -8 3 -5 6 6
6 11 1 17 -2 13 -5z m306 -21 c-13 -2 -33 -2 -45 0 -13 2 -3 4 22 4 25 0 35
-2 23 -4z m4240 -10 c-13 -2 -33 -2 -45 0 -13 2 -3 4 22 4 25 0 35 -2 23 -4z
m-3906 -19 c-3 -3 -12 -4 -19 -1 -8 3 -5 6 6 6 11 1 17 -2 13 -5z m146 -11
c-13 -2 -33 -2 -45 0 -13 2 -3 4 22 4 25 0 35 -2 23 -4z m245 -20 c-10 -2 -26
-2 -35 0 -10 3 -2 5 17 5 19 0 27 -2 18 -5z m305 -20 c-18 -2 -48 -2 -65 0
-18 2 -4 4 32 4 36 0 50 -2 33 -4z m335 -30 c-10 -2 -26 -2 -35 0 -10 3 -2 5
17 5 19 0 27 -2 18 -5z m155 -10 c-13 -2 -33 -2 -45 0 -13 2 -3 4 22 4 25 0
35 -2 23 -4z m90 -10 c-7 -2 -19 -2 -25 0 -7 3 -2 5 12 5 14 0 19 -2 13 -5z
m244 -19 c-3 -3 -12 -4 -19 -1 -8 3 -5 6 6 6 11 1 17 -2 13 -5z m206 -11 c-24
-2 -62 -2 -85 0 -24 2 -5 4 42 4 47 0 66 -2 43 -4z m197 -21 c0 -4 -18 -6 -40
-4 -22 2 -40 6 -40 8 0 2 18 4 40 4 22 0 40 -3 40 -8z m623 1 c-13 -2 -33 -2
-45 0 -13 2 -3 4 22 4 25 0 35 -2 23 -4z m-336 -20 c-20 -2 -52 -2 -70 0 -17
2 0 4 38 4 39 0 53 -2 32 -4z m346 -30 c-7 -2 -19 -2 -25 0 -7 3 -2 5 12 5 14
0 19 -2 13 -5z m150 -10 c-13 -2 -33 -2 -45 0 -13 2 -3 4 22 4 25 0 35 -2 23
-4z m545 -40 c-21 -2 -55 -2 -75 0 -21 2 -4 4 37 4 41 0 58 -2 38 -4z m185
-20 c-7 -2 -19 -2 -25 0 -7 3 -2 5 12 5 14 0 19 -2 13 -5z m294 -20 c-20 -2
-52 -2 -70 0 -17 2 0 4 38 4 39 0 53 -2 32 -4z m341 -30 c-10 -2 -26 -2 -35 0
-10 3 -2 5 17 5 19 0 27 -2 18 -5z m155 -10 c-13 -2 -33 -2 -45 0 -13 2 -3 4
22 4 25 0 35 -2 23 -4z m94 -9 c-3 -3 -12 -4 -19 -1 -8 3 -5 6 6 6 11 1 17 -2
13 -5z m146 -11 c-13 -2 -33 -2 -45 0 -13 2 -3 4 22 4 25 0 35 -2 23 -4z m305
-20 c-21 -2 -55 -2 -75 0 -21 2 -4 4 37 4 41 0 58 -2 38 -4z m192 -23 c0 -13
-20 -13 -40 0 -12 8 -9 10 13 10 15 0 27 -4 27 -10z m623 3 c-13 -2 -33 -2
-45 0 -13 2 -3 4 22 4 25 0 35 -2 23 -4z m-320 -20 c-13 -2 -33 -2 -45 0 -13
2 -3 4 22 4 25 0 35 -2 23 -4z m96 -7 c-2 -2 -22 -6 -44 -9 -27 -4 -35 -3 -25
3 14 9 79 15 69 6z m234 -23 c-7 -2 -19 -2 -25 0 -7 3 -2 5 12 5 14 0 19 -2
13 -5z m150 -10 c-13 -2 -33 -2 -45 0 -13 2 -3 4 22 4 25 0 35 -2 23 -4z m240
-20 c-13 -2 -33 -2 -45 0 -13 2 -3 4 22 4 25 0 35 -2 23 -4z m310 -20 c-18 -2
-48 -2 -65 0 -18 2 -4 4 32 4 36 0 50 -2 33 -4z m184 -19 c-3 -3 -12 -4 -19
-1 -8 3 -5 6 6 6 11 1 17 -2 13 -5z m306 -21 c-13 -2 -33 -2 -45 0 -13 2 -3 4
22 4 25 0 35 -2 23 -4z m330 -30 c-7 -2 -19 -2 -25 0 -7 3 -2 5 12 5 14 0 19
-2 13 -5z m150 -10 c-13 -2 -33 -2 -45 0 -13 2 -3 4 22 4 25 0 35 -2 23 -4z
m245 -20 c-10 -2 -26 -2 -35 0 -10 3 -2 5 17 5 19 0 27 -2 18 -5z m305 -20
c-18 -2 -48 -2 -65 0 -18 2 -4 4 32 4 36 0 50 -2 33 -4z m490 -40 c-13 -2 -33
-2 -45 0 -13 2 -3 4 22 4 25 0 35 -2 23 -4z m90 -10 c-7 -2 -19 -2 -25 0 -7 3
-2 5 12 5 14 0 19 -2 13 -5z m244 -19 c-3 -3 -12 -4 -19 -1 -8 3 -5 6 6 6 11
1 17 -2 13 -5z m206 -11 c-24 -2 -62 -2 -85 0 -24 2 -5 4 42 4 47 0 66 -2 43
-4z m197 -21 c0 -4 -18 -6 -40 -4 -22 2 -40 6 -40 8 0 2 18 4 40 4 22 0 40 -3
40 -8z m623 1 c-13 -2 -33 -2 -45 0 -13 2 -3 4 22 4 25 0 35 -2 23 -4z m-330
-20 c-18 -2 -48 -2 -65 0 -18 2 -4 4 32 4 36 0 50 -2 33 -4z m340 -30 c-7 -2
-19 -2 -25 0 -7 3 -2 5 12 5 14 0 19 -2 13 -5z m150 -10 c-13 -2 -33 -2 -45 0
-13 2 -3 4 22 4 25 0 35 -2 23 -4z m4240 -10 c-13 -2 -33 -2 -45 0 -13 2 -3 4
22 4 25 0 35 -2 23 -4z m-3906 -19 c-3 -3 -12 -4 -19 -1 -8 3 -5 6 6 6 11 1
17 -2 13 -5z m206 -11 c-24 -2 -62 -2 -85 0 -24 2 -5 4 42 4 47 0 66 -2 43 -4z
m4787 -18 c0 -2 -6 -5 -13 -8 -8 -3 -14 1 -14 8 0 7 6 11 14 8 7 -3 13 -6 13
-8z m-4597 -2 c-7 -2 -19 -2 -25 0 -7 3 -2 5 12 5 14 0 19 -2 13 -5z m294 -20
c-20 -2 -52 -2 -70 0 -17 2 0 4 38 4 39 0 53 -2 32 -4z m4143 -17 c0 -2 -7 -7
-16 -10 -8 -3 -12 -2 -9 4 6 10 25 14 25 6z m30 -21 c-16 -9 -19 -14 -10 -17
10 -3 9 -6 -4 -11 -10 -4 -15 -3 -11 3 3 6 0 10 -7 10 -8 0 -6 5 5 11 9 6 15
14 12 19 -3 4 5 6 16 3 l21 -6 -22 -12z m-3832 8 c-10 -2 -26 -2 -35 0 -10 3
-2 5 17 5 19 0 27 -2 18 -5z m155 -10 c-13 -2 -33 -2 -45 0 -13 2 -3 4 22 4
25 0 35 -2 23 -4z m94 -9 c-3 -3 -12 -4 -19 -1 -8 3 -5 6 6 6 11 1 17 -2 13
-5z m451 -31 c-21 -2 -55 -2 -75 0 -21 2 -4 4 37 4 41 0 58 -2 38 -4z m192
-23 c0 -13 -20 -13 -40 0 -12 8 -9 10 13 10 15 0 27 -4 27 -10z m623 3 c-13
-2 -33 -2 -45 0 -13 2 -3 4 22 4 25 0 35 -2 23 -4z m2167 3 c0 -11 -19 -15
-25 -6 -3 5 1 10 9 10 9 0 16 -2 16 -4z m30 -16 c0 -5 -5 -10 -11 -10 -5 0 -7
5 -4 10 3 6 8 10 11 10 2 0 4 -4 4 -10z m-2533 -7 c-20 -2 -52 -2 -70 0 -17 2
0 4 38 4 39 0 53 -2 32 -4z m2473 -8 c0 -2 -9 -3 -19 -2 -11 0 -18 5 -15 9 4
6 34 0 34 -7z m-2127 -22 c-7 -2 -19 -2 -25 0 -7 3 -2 5 12 5 14 0 19 -2 13
-5z m150 -10 c-13 -2 -33 -2 -45 0 -13 2 -3 4 22 4 25 0 35 -2 23 -4z m240
-20 c-13 -2 -33 -2 -45 0 -13 2 -3 4 22 4 25 0 35 -2 23 -4z m305 -20 c-21 -2
-55 -2 -75 0 -21 2 -4 4 37 4 41 0 58 -2 38 -4z m1316 -4 c-5 -9 -64 -9 -64 0
0 4 15 7 34 7 19 0 33 -3 30 -7z m-1127 -15 c-3 -3 -12 -4 -19 -1 -8 3 -5 6 6
6 11 1 17 -2 13 -5z m1058 -3 c3 -5 1 -12 -5 -16 -5 -3 -10 1 -10 9 0 18 6 21
15 7z m-752 -18 c-13 -2 -33 -2 -45 0 -13 2 -3 4 22 4 25 0 35 -2 23 -4z m687
-24 c0 -6 -4 -8 -9 -5 -5 3 -11 -1 -15 -9 -3 -8 -11 -15 -18 -14 -10 0 -10 2
0 6 19 7 14 23 -5 17 -12 -4 -14 -3 -6 3 17 12 53 14 53 2z m-357 -6 c-7 -2
-19 -2 -25 0 -7 3 -2 5 12 5 14 0 19 -2 13 -5z m259 -15 c-5 -5 -18 -8 -28 -5
-15 4 -14 5 4 6 15 1 21 5 16 13 -5 7 -3 8 5 3 8 -5 9 -11 3 -17z m-109 5
c-13 -2 -33 -2 -45 0 -13 2 -3 4 22 4 25 0 35 -2 23 -4z m-353 -268 c0 -2 -9
-3 -19 -2 -11 0 -18 5 -15 9 4 6 34 0 34 -7z m-113 -40 c0 -8 -4 -12 -9 -9 -5
3 -6 10 -3 15 9 13 12 11 12 -6z"/>
<path d="M29740 41915 c-7 -9 -8 -15 -2 -15 5 0 12 7 16 15 3 8 4 15 2 15 -2
0 -9 -7 -16 -15z"/>
<path d="M31798 42113 c23 -2 61 -2 85 0 23 2 4 4 -43 4 -47 0 -66 -2 -42 -4z"/>
<path d="M31218 42103 c12 -2 32 -2 45 0 12 2 2 4 -23 4 -25 0 -35 -2 -22 -4z"/>
<path d="M34978 42103 c12 -2 32 -2 45 0 12 2 2 4 -23 4 -25 0 -35 -2 -22 -4z"/>
<path d="M29370 42096 c0 -2 7 -7 16 -10 8 -3 12 -2 9 4 -6 10 -25 14 -25 6z"/>
<path d="M29461 42081 c-9 -6 -10 -11 -2 -15 13 -8 31 1 31 15 0 11 -11 11
-29 0z"/>
<path d="M35378 42073 c12 -2 32 -2 45 0 12 2 2 4 -23 4 -25 0 -35 -2 -22 -4z"/>
<path d="M32498 42053 c12 -2 32 -2 45 0 12 2 2 4 -23 4 -25 0 -35 -2 -22 -4z"/>
<path d="M29458 42043 c7 -3 16 -2 19 1 4 3 -2 6 -13 5 -11 0 -14 -3 -6 -6z"/>
<path d="M32845 42030 c72 -12 115 -11 115 0 0 6 -33 9 -82 9 -78 -2 -80 -2
-33 -9z"/>
<path d="M32258 42023 c12 -2 32 -2 45 0 12 2 2 4 -23 4 -25 0 -35 -2 -22 -4z"/>
<path d="M36018 42023 c12 -2 32 -2 45 0 12 2 2 4 -23 4 -25 0 -35 -2 -22 -4z"/>
<path d="M29645 42010 c-3 -5 -2 -10 4 -10 5 0 13 5 16 10 3 6 2 10 -4 10 -5
0 -13 -4 -16 -10z"/>
<path d="M36418 41993 c12 -2 32 -2 45 0 12 2 2 4 -23 4 -25 0 -35 -2 -22 -4z"/>
<path d="M33798 41953 c23 -2 61 -2 85 0 23 2 4 4 -43 4 -47 0 -66 -2 -42 -4z"/>
<path d="M37058 41943 c12 -2 32 -2 45 0 12 2 2 4 -23 4 -25 0 -35 -2 -22 -4z"/>
<path d="M34400 41870 c0 -5 18 -10 40 -10 22 0 40 5 40 10 0 6 -18 10 -40 10
-22 0 -40 -4 -40 -10z"/>
<path d="M34838 41873 c23 -2 61 -2 85 0 23 2 4 4 -43 4 -47 0 -66 -2 -42 -4z"/>
<path d="M38418 41833 c12 -2 32 -2 45 0 12 2 2 4 -23 4 -25 0 -35 -2 -22 -4z"/>
<path d="M35538 41813 c12 -2 32 -2 45 0 12 2 2 4 -23 4 -25 0 -35 -2 -22 -4z"/>
<path d="M35885 41790 c72 -12 115 -11 115 0 0 6 -33 9 -82 9 -78 -2 -80 -2
-33 -9z"/>
<path d="M35298 41783 c12 -2 32 -2 45 0 12 2 2 4 -23 4 -25 0 -35 -2 -22 -4z"/>
<path d="M39058 41783 c12 -2 32 -2 45 0 12 2 2 4 -23 4 -25 0 -35 -2 -22 -4z"/>
<path d="M39458 41753 c12 -2 32 -2 45 0 12 2 2 4 -23 4 -25 0 -35 -2 -22 -4z"/>
<path d="M36578 41733 c12 -2 32 -2 45 0 12 2 2 4 -23 4 -25 0 -35 -2 -22 -4z"/>
<path d="M36925 41710 c72 -12 115 -11 115 0 0 6 -33 9 -82 9 -78 -2 -80 -2
-33 -9z"/>
<path d="M36338 41703 c12 -2 32 -2 45 0 12 2 2 4 -23 4 -25 0 -35 -2 -22 -4z"/>
<path d="M40098 41703 c12 -2 32 -2 45 0 12 2 2 4 -23 4 -25 0 -35 -2 -22 -4z"/>
<path d="M40498 41673 c12 -2 32 -2 45 0 12 2 2 4 -23 4 -25 0 -35 -2 -22 -4z"/>
<path d="M37878 41633 c23 -2 61 -2 85 0 23 2 4 4 -43 4 -47 0 -66 -2 -42 -4z"/>
<path d="M37458 41623 c12 -2 32 -2 45 0 12 2 2 4 -23 4 -25 0 -35 -2 -22 -4z"/>
<path d="M41458 41593 c12 -2 32 -2 45 0 12 2 2 4 -23 4 -25 0 -35 -2 -22 -4z"/>
<path d="M38918 41553 c23 -2 61 -2 85 0 23 2 4 4 -43 4 -47 0 -66 -2 -42 -4z"/>
<path d="M38338 41543 c12 -2 32 -2 45 0 12 2 2 4 -23 4 -25 0 -35 -2 -22 -4z"/>
<path d="M42098 41543 c12 -2 32 -2 45 0 12 2 2 4 -23 4 -25 0 -35 -2 -22 -4z"/>
<path d="M42498 41513 c12 -2 32 -2 45 0 12 2 2 4 -23 4 -25 0 -35 -2 -22 -4z"/>
<path d="M39618 41493 c12 -2 32 -2 45 0 12 2 2 4 -23 4 -25 0 -35 -2 -22 -4z"/>
<path d="M39965 41470 c72 -12 115 -11 115 0 0 6 -33 9 -82 9 -78 -2 -80 -2
-33 -9z"/>
<path d="M39378 41463 c12 -2 32 -2 45 0 12 2 2 4 -23 4 -25 0 -35 -2 -22 -4z"/>
<path d="M43138 41463 c12 -2 32 -2 45 0 12 2 2 4 -23 4 -25 0 -35 -2 -22 -4z"/>
<path d="M43538 41433 c12 -2 32 -2 45 0 12 2 2 4 -23 4 -25 0 -35 -2 -22 -4z"/>
<path d="M40918 41393 c23 -2 61 -2 85 0 23 2 4 4 -43 4 -47 0 -66 -2 -42 -4z"/>
<path d="M44178 41383 c12 -2 32 -2 45 0 12 2 2 4 -23 4 -25 0 -35 -2 -22 -4z"/>
<path d="M44498 41353 c12 -2 32 -2 45 0 12 2 2 4 -23 4 -25 0 -35 -2 -22 -4z"/>
<path d="M41520 41310 c0 -5 18 -10 40 -10 22 0 40 5 40 10 0 6 -18 10 -40 10
-22 0 -40 -4 -40 -10z"/>
<path d="M41958 41313 c23 -2 61 -2 85 0 23 2 4 4 -43 4 -47 0 -66 -2 -42 -4z"/>
<path d="M45538 41273 c12 -2 32 -2 45 0 12 2 2 4 -23 4 -25 0 -35 -2 -22 -4z"/>
<path d="M42658 41253 c12 -2 32 -2 45 0 12 2 2 4 -23 4 -25 0 -35 -2 -22 -4z"/>
<path d="M43005 41230 c72 -12 115 -11 115 0 0 6 -33 9 -82 9 -78 -2 -80 -2
-33 -9z"/>
<path d="M42418 41223 c12 -2 32 -2 45 0 12 2 2 4 -23 4 -25 0 -35 -2 -22 -4z"/>
<path d="M46178 41223 c12 -2 32 -2 45 0 12 2 2 4 -23 4 -25 0 -35 -2 -22 -4z"/>
<path d="M46578 41193 c12 -2 32 -2 45 0 12 2 2 4 -23 4 -25 0 -35 -2 -22 -4z"/>
<path d="M43698 41173 c12 -2 32 -2 45 0 12 2 2 4 -23 4 -25 0 -35 -2 -22 -4z"/>
<path d="M44045 41150 c72 -12 115 -11 115 0 0 6 -33 9 -82 9 -78 -2 -80 -2
-33 -9z"/>
<path d="M47218 41143 c12 -2 32 -2 45 0 12 2 2 4 -23 4 -25 0 -35 -2 -22 -4z"/>
<path d="M44560 41070 c0 -5 18 -10 40 -10 22 0 40 5 40 10 0 6 -18 10 -40 10
-22 0 -40 -4 -40 -10z"/>
<path d="M44998 41073 c23 -2 61 -2 85 0 23 2 4 4 -43 4 -47 0 -66 -2 -42 -4z"/>
<path d="M48578 41033 c12 -2 32 -2 45 0 12 2 2 4 -23 4 -25 0 -35 -2 -22 -4z"/>
<path d="M46038 40993 c23 -2 61 -2 85 0 23 2 4 4 -43 4 -47 0 -66 -2 -42 -4z"/>
<path d="M45458 40983 c12 -2 32 -2 45 0 12 2 2 4 -23 4 -25 0 -35 -2 -22 -4z"/>
<path d="M49218 40983 c12 -2 32 -2 45 0 12 2 2 4 -23 4 -25 0 -35 -2 -22 -4z"/>
<path d="M49618 40953 c12 -2 32 -2 45 0 12 2 2 4 -23 4 -25 0 -35 -2 -22 -4z"/>
<path d="M46738 40933 c12 -2 32 -2 45 0 12 2 2 4 -23 4 -25 0 -35 -2 -22 -4z"/>
<path d="M47085 40910 c72 -12 115 -11 115 0 0 6 -33 9 -82 9 -78 -2 -80 -2
-33 -9z"/>
<path d="M46498 40903 c12 -2 32 -2 45 0 12 2 2 4 -23 4 -25 0 -35 -2 -22 -4z"/>
<path d="M50258 40903 c12 -2 32 -2 45 0 12 2 2 4 -23 4 -25 0 -35 -2 -22 -4z"/>
<path d="M50405 40860 c-3 -6 1 -7 9 -4 18 7 21 14 7 14 -6 0 -13 -4 -16 -10z"/>
<path d="M48038 40833 c23 -2 61 -2 85 0 23 2 4 4 -43 4 -47 0 -66 -2 -42 -4z"/>
<path d="M47618 40823 c12 -2 32 -2 45 0 12 2 2 4 -23 4 -25 0 -35 -2 -22 -4z"/>
<path d="M49078 40753 c23 -2 61 -2 85 0 23 2 4 4 -43 4 -47 0 -66 -2 -42 -4z"/>
<path d="M48498 40743 c12 -2 32 -2 45 0 12 2 2 4 -23 4 -25 0 -35 -2 -22 -4z"/>
<path d="M49778 40693 c12 -2 32 -2 45 0 12 2 2 4 -23 4 -25 0 -35 -2 -22 -4z"/>
<path d="M50090 40690 c-9 -6 -10 -10 -3 -10 6 0 15 5 18 10 8 12 4 12 -15 0z"/>
<path d="M49538 40663 c12 -2 32 -2 45 0 12 2 2 4 -23 4 -25 0 -35 -2 -22 -4z"/>
<path d="M49956 40638 c5 -8 0 -9 -16 -5 -17 4 -20 3 -12 -5 8 -8 18 -8 34 -1
19 8 20 10 4 16 -11 5 -15 3 -10 -5z"/>
<path d="M49787 40539 c7 -7 15 -10 18 -7 3 3 -2 9 -12 12 -14 6 -15 5 -6 -5z"/>
<path d="M49763 40525 c0 -8 4 -12 9 -9 5 3 6 10 3 15 -9 13 -12 11 -12 -6z"/>
<path d="M12116 14690 c-503 -58 -911 -328 -1130 -750 -73 -141 -136 -329
-140 -417 0 -17 -4 -29 -8 -26 -5 2 -8 -7 -8 -20 0 -14 -3 -39 -7 -57 -5 -27
-3 -32 8 -25 11 7 12 6 3 -6 -6 -8 -14 -26 -16 -41 -5 -25 -3 -26 16 -16 12 6
24 16 28 22 7 11 8 4 10 -69 0 -22 3 -34 5 -27 3 7 22 12 44 12 40 0 53 -15
22 -23 -10 -3 8 -5 40 -6 31 0 57 -5 57 -11 0 -5 18 -10 40 -10 38 0 40 -2 40
-30 0 -28 2 -30 40 -30 22 0 40 -4 40 -10 0 -5 18 -10 40 -10 33 0 40 -3 40
-20 0 -17 7 -20 40 -20 33 0 40 -3 40 -19 0 -15 10 -21 40 -26 22 -4 40 -11
40 -16 0 -5 18 -9 40 -9 29 0 40 -4 40 -15 0 -11 11 -15 40 -15 38 0 40 -2 40
-30 0 -28 2 -30 40 -30 22 0 40 -4 40 -10 0 -5 18 -10 40 -10 22 0 40 -4 40
-10 0 -5 11 -10 24 -10 13 0 28 -6 34 -13 16 -18 -12 -51 -38 -44 -12 3 -20 0
-20 -7 0 -11 99 -40 107 -32 3 2 -9 7 -26 11 -32 7 -43 25 -16 25 8 0 15 5 15
10 0 6 18 10 40 10 33 0 40 -3 40 -20 0 -17 7 -20 40 -20 33 0 40 -3 40 -20 0
-17 7 -20 40 -20 22 0 40 -4 40 -10 0 -5 17 -10 38 -11 20 0 46 -4 57 -9 16
-7 12 -9 -20 -11 -24 -1 -31 -3 -17 -6 12 -2 22 -11 22 -19 0 -10 13 -14 43
-15 32 0 37 -2 22 -9 -14 -6 -4 -9 38 -9 50 -1 57 -3 57 -21 0 -17 7 -20 40
-20 33 0 40 -3 40 -20 0 -17 7 -20 40 -20 22 0 40 -4 40 -10 0 -5 18 -10 40
-10 33 0 40 -3 40 -20 0 -17 7 -20 40 -20 33 0 40 -3 40 -20 0 -11 -7 -20 -15
-20 -8 0 -15 -4 -15 -10 0 -5 7 -10 15 -10 8 0 15 5 15 10 0 14 23 12 56 -5
16 -8 46 -15 67 -15 26 0 37 -4 37 -15 0 -11 11 -15 38 -16 20 0 46 -4 57 -9
15 -6 4 -9 -40 -11 -52 -2 -54 -3 -17 -6 28 -3 42 -9 42 -19 0 -10 12 -14 43
-15 32 0 37 -2 22 -9 -15 -7 -9 -9 25 -9 75 -1 150 -23 150 -43 0 -14 8 -18
40 -18 33 0 40 -3 40 -20 0 -17 7 -20 40 -20 33 0 40 -3 40 -20 0 -17 7 -20
40 -20 33 0 40 -3 40 -20 0 -11 6 -20 14 -20 7 0 27 -7 42 -15 16 -8 46 -15
67 -15 26 0 37 -4 37 -15 0 -11 11 -15 40 -15 22 0 40 -4 40 -10 0 -5 -18 -10
-40 -10 -22 0 -40 -4 -40 -10 0 -5 18 -10 40 -10 22 0 40 -4 40 -10 0 -5 18
-10 40 -10 22 0 40 -4 40 -10 0 -5 18 -10 40 -10 22 0 40 -4 40 -10 0 -5 18
-10 40 -10 33 0 40 -3 40 -20 0 -17 7 -20 40 -20 33 0 40 -3 40 -20 0 -17 7
-20 40 -20 33 0 40 -3 40 -20 0 -17 7 -20 40 -20 22 0 40 -4 40 -10 0 -5 17
-10 38 -11 20 0 46 -4 57 -9 16 -7 12 -9 -20 -11 -24 -1 -31 -3 -17 -6 12 -2
22 -11 22 -19 0 -10 12 -14 40 -14 22 0 40 -4 40 -10 0 -5 18 -10 40 -10 22 0
40 -3 40 -8 0 -7 30 -25 63 -38 9 -3 17 -13 17 -20 0 -10 13 -14 40 -14 23 0
40 -5 40 -11 0 -8 25 -10 78 -7 42 3 60 3 40 1 -30 -3 -38 -9 -38 -24 0 -16 7
-19 40 -19 33 0 40 -3 40 -20 0 -12 -7 -20 -17 -20 -10 0 -28 -3 -40 -6 -17
-5 -23 -2 -23 10 0 12 -10 16 -40 16 -56 0 -50 -13 13 -28 64 -15 107 -16 107
-2 0 6 6 10 13 10 18 0 67 -24 67 -32 0 -5 18 -8 40 -8 22 0 40 -4 40 -10 0
-5 18 -10 40 -10 53 0 51 -18 -2 -23 l-43 -4 43 -1 c30 -1 42 -6 42 -17 0 -11
12 -15 43 -16 32 0 37 -2 22 -9 -14 -6 -4 -9 38 -9 32 -1 56 -5 53 -9 -3 -5 3
-8 12 -8 59 0 72 -5 72 -24 0 -17 7 -20 40 -20 33 0 40 -3 40 -20 0 -17 7 -20
40 -20 33 0 40 -3 40 -20 0 -17 7 -20 40 -20 33 0 40 -3 40 -20 0 -11 6 -20
14 -20 7 0 27 -7 42 -15 16 -8 46 -15 67 -15 26 0 37 -4 37 -15 0 -11 11 -15
40 -15 22 0 40 -4 40 -10 0 -5 -18 -10 -40 -10 -22 0 -40 -4 -40 -10 0 -6 33
-10 80 -10 72 0 80 -2 80 -19 0 -15 9 -20 43 -25 102 -13 117 -18 117 -37 0
-15 7 -19 40 -19 33 0 40 -3 40 -20 0 -17 7 -20 40 -20 33 0 40 -3 40 -20 0
-17 7 -20 40 -20 22 0 40 -4 40 -10 0 -5 18 -10 40 -10 38 0 40 -2 40 -30 0
-28 2 -30 40 -30 22 0 40 -4 40 -10 0 -5 18 -10 40 -10 22 0 40 -4 40 -10 0
-5 18 -10 40 -10 38 0 40 -2 40 -30 0 -28 2 -30 40 -30 23 0 40 -5 40 -11 0
-8 25 -10 78 -7 42 3 60 3 40 1 -30 -3 -38 -9 -38 -24 0 -16 7 -19 40 -19 32
0 40 -4 40 -19 0 -14 -11 -20 -42 -27 l-43 -8 39 -4 c22 -2 42 1 46 8 8 13 80
3 80 -11 0 -5 18 -9 40 -9 29 0 40 -4 40 -15 0 -11 11 -15 40 -15 53 0 51 -18
-2 -23 l-43 -4 43 -1 c30 -1 42 -6 42 -17 0 -11 11 -15 40 -15 22 0 40 -4 40
-10 0 -5 18 -10 41 -10 24 0 38 -4 34 -10 -4 -6 12 -10 39 -10 25 0 46 -4 46
-10 0 -17 -39 -50 -60 -50 -11 0 -20 -4 -20 -10 0 -5 11 -10 25 -10 14 0 25 5
25 10 0 6 7 10 15 10 8 0 15 5 15 10 0 6 18 10 40 10 34 0 40 -3 40 -21 0 -20
4 -21 78 -17 42 3 60 3 40 1 -30 -3 -38 -9 -38 -24 0 -16 7 -19 40 -19 36 0
40 -2 40 -25 0 -22 4 -25 40 -25 29 0 40 -4 40 -15 0 -11 12 -15 43 -16 32 0
37 -2 22 -9 -14 -6 -4 -9 38 -9 31 -1 57 -5 57 -11 0 -5 -18 -10 -40 -10 -22
0 -40 -4 -40 -10 0 -6 33 -10 80 -10 72 0 80 -2 80 -19 0 -15 9 -20 43 -25
102 -13 117 -18 117 -37 0 -15 7 -19 40 -19 33 0 40 -3 40 -20 0 -11 -7 -20
-15 -20 -8 0 -15 -4 -15 -10 0 -5 7 -10 15 -10 8 0 15 5 15 10 0 6 18 10 40
10 33 0 40 -3 40 -20 0 -17 7 -20 40 -20 22 0 40 -4 40 -10 0 -5 18 -10 40
-10 38 0 40 -2 40 -30 0 -28 2 -30 40 -30 22 0 40 -4 40 -10 0 -5 18 -10 40
-10 22 0 40 -4 40 -10 0 -5 18 -10 40 -10 38 0 40 -2 40 -30 0 -28 2 -30 40
-30 23 0 40 -5 40 -11 0 -8 25 -10 78 -7 42 3 60 3 40 1 -30 -3 -38 -9 -38
-24 0 -16 7 -19 40 -19 33 0 40 -3 40 -20 0 -17 -7 -20 -52 -20 -38 0 -49 -3
-38 -10 20 -13 87 -13 92 1 4 13 78 2 78 -12 0 -5 18 -9 40 -9 29 0 40 -4 40
-15 0 -11 11 -15 40 -15 38 0 40 -2 40 -30 0 -28 2 -30 40 -30 22 0 40 -4 40
-10 0 -5 18 -10 40 -10 22 0 40 -4 40 -10 0 -5 11 -10 23 -10 13 0 32 -9 42
-20 12 -13 31 -20 57 -20 32 0 38 -3 38 -21 0 -20 4 -21 78 -17 42 3 60 3 40
1 -30 -3 -38 -9 -38 -24 0 -16 7 -19 40 -19 22 0 40 -4 40 -10 0 -5 17 -10 38
-11 20 0 46 -4 57 -9 16 -7 12 -9 -20 -11 -24 -1 -31 -3 -17 -6 12 -2 22 -11
22 -19 0 -10 13 -14 43 -15 32 0 37 -2 22 -9 -14 -6 -4 -9 38 -9 31 -1 57 -5
57 -11 0 -5 -18 -10 -40 -10 -22 0 -40 -4 -40 -10 0 -6 33 -10 80 -10 73 0 80
-2 80 -20 0 -17 7 -20 43 -21 32 0 37 -2 22 -9 -14 -6 -4 -9 38 -9 50 -1 57
-3 57 -21 0 -17 7 -20 40 -20 33 0 40 -3 40 -20 0 -11 -7 -20 -15 -20 -8 0
-15 -4 -15 -10 0 -5 7 -10 15 -10 8 0 15 5 15 10 0 6 18 10 40 10 29 0 40 -4
40 -15 0 -11 11 -15 40 -15 29 0 40 -4 40 -15 0 -11 11 -15 40 -15 53 0 51
-18 -2 -23 l-43 -4 43 -1 c23 -1 42 -6 42 -12 0 -5 18 -10 40 -10 40 0 55 -15
23 -23 -10 -3 8 -5 40 -6 31 0 57 -5 57 -11 0 -5 18 -10 40 -10 38 0 40 -2 40
-30 0 -28 2 -30 40 -30 22 0 40 -4 40 -10 0 -5 18 -10 40 -10 33 0 40 -3 40
-20 0 -17 7 -20 40 -20 33 0 40 -3 40 -19 0 -15 10 -21 40 -26 22 -4 40 -11
40 -16 0 -5 18 -9 40 -9 29 0 40 -4 40 -15 0 -11 11 -15 40 -15 38 0 40 -2 40
-30 0 -28 2 -30 40 -30 22 0 40 -4 40 -10 0 -5 18 -10 40 -10 22 0 40 -4 40
-10 0 -5 11 -10 24 -10 13 0 28 -6 34 -13 16 -18 -12 -51 -38 -44 -12 3 -20 0
-20 -7 0 -11 99 -40 107 -32 3 2 -9 7 -26 11 -32 7 -43 25 -16 25 8 0 15 5 15
10 0 6 18 10 40 10 33 0 40 -3 40 -20 0 -17 7 -20 40 -20 33 0 40 -3 40 -20 0
-17 7 -20 40 -20 22 0 40 -4 40 -10 0 -5 17 -10 38 -11 20 0 46 -4 57 -9 16
-7 12 -9 -20 -11 -24 -1 -31 -3 -17 -6 12 -2 22 -11 22 -19 0 -10 13 -14 43
-15 32 0 37 -2 22 -9 -14 -6 -4 -9 38 -9 31 -1 57 -5 57 -11 0 -5 -5 -10 -11
-10 -5 0 -7 -4 -4 -10 3 -5 -3 -10 -14 -10 -10 0 -22 -6 -24 -12 -4 -10 -6
-10 -6 0 -1 6 -6 12 -13 12 -6 0 -3 -8 7 -20 17 -19 41 -18 30 1 -4 5 1 9 10
9 9 0 13 -4 10 -10 -3 -6 1 -7 10 -3 12 4 13 8 5 13 -9 5 -9 9 -1 14 6 4 14 0
18 -9 3 -10 0 -21 -8 -26 -8 -5 -9 -9 -4 -9 6 0 16 4 24 9 10 7 11 13 1 31 -7
12 -7 20 -2 16 6 -3 22 -2 36 4 14 5 26 7 26 5 0 -3 -12 -10 -26 -15 -14 -6
-22 -15 -19 -20 5 -8 11 -7 21 1 9 7 14 8 13 3 -5 -27 4 -34 40 -34 26 0 41
-5 45 -16 3 -8 10 -12 16 -9 5 3 10 2 10 -4 0 -5 -5 -11 -12 -13 -8 -3 -7 -6
3 -10 7 -3 23 -2 34 3 17 6 17 8 3 8 -10 1 -18 5 -18 11 0 5 13 7 30 5 16 -2
32 0 35 5 7 11 45 9 45 -3 0 -5 -9 -6 -19 -2 -14 4 -23 0 -31 -15 -6 -11 -7
-20 -3 -19 19 3 27 -2 15 -10 -11 -7 -11 -9 2 -14 9 -4 16 -1 16 5 0 7 6 6 16
-3 8 -7 32 -14 52 -16 20 -2 42 -8 48 -14 8 -7 16 -6 26 4 11 12 14 12 24 -1
9 -13 12 -13 17 2 9 22 -19 33 -44 18 -12 -8 -20 -8 -24 -2 -4 6 -1 9 6 8 6
-2 14 3 17 11 3 8 0 11 -7 7 -6 -4 -11 -1 -11 6 -1 8 -6 6 -15 -6 -21 -28 -48
-30 -39 -4 5 15 3 19 -7 13 -12 -7 -12 -5 0 6 10 11 15 11 18 2 5 -15 23 -17
23 -3 0 9 -56 44 -72 45 -3 0 -9 3 -13 7 -4 4 -13 4 -21 1 -8 -3 -14 -2 -13 3
4 22 -2 33 -16 28 -9 -4 -15 0 -15 10 0 15 -37 42 -52 38 -5 -1 -8 2 -8 6 0 5
-30 33 -66 63 -37 30 -80 69 -97 86 -16 18 -34 30 -40 26 -6 -3 -7 -2 -4 4 9
15 -69 87 -84 78 -7 -5 -10 -4 -5 3 3 6 -28 55 -70 109 -101 129 -155 213
-225 353 -155 311 -221 598 -221 965 0 266 27 457 99 695 125 415 341 769 667
1096 225 224 441 381 715 518 259 131 507 208 831 259 14 2 -7 5 -47 6 -105 2
-210 18 -373 56 -80 19 -1673 293 -3540 609 -1867 317 -4023 682 -4790 812
-767 130 -1539 260 -1715 290 -345 58 -533 73 -699 54z m-1266 -1330 c0 -5 -5
-10 -11 -10 -5 0 -7 5 -4 10 3 6 8 10 11 10 2 0 4 -4 4 -10z m110 -12 c0 -13
-32 -6 -37 9 -3 7 3 9 16 6 12 -3 21 -10 21 -15z m100 -35 c25 -13 25 -13 3
-13 -13 0 -23 5 -23 10 0 6 -6 10 -14 10 -8 0 -18 4 -21 10 -7 11 14 4 55 -17z
m247 -109 c-3 -3 -12 -4 -19 -1 -8 3 -5 6 6 6 11 1 17 -2 13 -5z m53 -49 c0
-9 -9 -15 -22 -15 -22 1 -23 1 -4 15 25 19 26 19 26 0z m77 -11 c-3 -3 -12 -4
-19 -1 -8 3 -5 6 6 6 11 1 17 -2 13 -5z m163 -75 c3 -3 19 -10 35 -14 l30 -9
-30 -4 c-16 -2 -31 1 -33 7 -2 6 -10 11 -17 11 -8 0 -19 9 -25 20 -11 20 -10
20 12 8 13 -7 25 -16 28 -19z m-133 -5 c-3 -3 -12 -4 -19 -1 -8 3 -5 6 6 6 11
1 17 -2 13 -5z m338 -75 c5 -5 0 -9 -14 -9 -12 0 -29 7 -38 15 -14 14 -13 15
13 9 16 -4 33 -11 39 -15z m80 -39 c4 -6 -5 -10 -19 -10 -14 0 -26 5 -26 10 0
6 9 10 19 10 11 0 23 -4 26 -10z m142 -66 c-3 -3 -12 -4 -19 -1 -8 3 -5 6 6 6
11 1 17 -2 13 -5z m86 -41 c-7 -2 -19 -2 -25 0 -7 3 -2 5 12 5 14 0 19 -2 13
-5z m92 -41 c-3 -3 -11 0 -18 7 -9 10 -8 11 6 5 10 -3 15 -9 12 -12z m68 -29
c-7 -2 -19 -2 -25 0 -7 3 -2 5 12 5 14 0 19 -2 13 -5z m252 -103 c4 -6 -5 -10
-19 -10 -14 0 -26 5 -26 10 0 6 9 10 19 10 11 0 23 -4 26 -10z m131 -60 c7 0
25 -7 40 -15 18 -9 23 -15 12 -15 -9 0 -20 5 -23 11 -4 5 -17 9 -28 8 -38 -2
-46 0 -57 20 -10 19 -9 19 17 5 16 -7 33 -14 39 -14z m179 -80 c3 -5 -3 -10
-14 -10 -12 0 -21 5 -21 10 0 6 6 10 14 10 8 0 18 -4 21 -10z m90 -40 c3 -5 2
-10 -4 -10 -5 0 -13 5 -16 10 -3 6 -2 10 4 10 5 0 13 -4 16 -10z m145 -62 c0
-4 -7 -8 -15 -8 -8 0 -15 5 -15 10 0 6 -6 10 -14 10 -8 0 -17 4 -20 9 -4 5 10
4 29 -2 19 -6 35 -14 35 -19z m237 -104 c-3 -3 -12 -4 -19 -1 -8 3 -5 6 6 6
11 1 17 -2 13 -5z m66 -31 c-7 -2 -13 -11 -13 -19 0 -8 -10 -14 -22 -14 l-23
0 25 20 c14 11 30 19 35 19 6 0 4 -3 -2 -6z m52 -23 c3 -5 1 -10 -4 -10 -6 0
-11 5 -11 10 0 6 2 10 4 10 3 0 8 -4 11 -10z m168 -70 c10 0 30 -9 44 -20 l26
-20 -32 0 c-17 0 -31 5 -31 10 0 6 -7 10 -15 10 -8 0 -20 10 -26 23 -9 18 -9
20 2 10 7 -7 22 -13 32 -13z m212 -91 c5 -5 0 -9 -14 -9 -12 0 -29 7 -38 15
-14 14 -13 15 13 9 16 -4 33 -11 39 -15z m91 -44 c37 -19 17 -19 -27 0 -19 8
-27 14 -18 15 9 0 30 -7 45 -15z m217 -102 c-7 -2 -19 -2 -25 0 -7 3 -2 5 12
5 14 0 19 -2 13 -5z m92 -41 c-3 -3 -11 0 -18 7 -9 10 -8 11 6 5 10 -3 15 -9
12 -12z m68 -29 c-7 -2 -19 -2 -25 0 -7 3 -2 5 12 5 14 0 19 -2 13 -5z m252
-103 c4 -6 -5 -10 -19 -10 -14 0 -26 5 -26 10 0 6 9 10 19 10 11 0 23 -4 26
-10z m65 -30 c12 -8 11 -10 -7 -10 -13 0 -23 5 -23 10 0 13 11 13 30 0z m98
-40 c9 -5 31 -15 47 -22 24 -9 27 -12 11 -16 -10 -2 -21 0 -25 5 -6 8 -43 27
-71 36 -12 4 -11 6 3 6 9 1 25 -3 35 -9z m147 -70 c3 -5 -3 -10 -14 -10 -12 0
-21 5 -21 10 0 6 6 10 14 10 8 0 18 -4 21 -10z m91 -41 c3 -5 -6 -9 -20 -9
-16 0 -26 6 -26 14 0 15 36 11 46 -5z m74 -29 c0 -5 -7 -7 -15 -4 -8 4 -15 8
-15 10 0 2 7 4 15 4 8 0 15 -4 15 -10z m61 -20 c5 0 9 -4 9 -10 0 -15 -20 -12
-38 7 -16 16 -16 16 1 10 10 -4 23 -7 28 -7z m104 -50 c4 -6 -5 -10 -19 -10
-14 0 -26 5 -26 10 0 6 9 10 19 10 11 0 23 -4 26 -10z m142 -66 c-3 -3 -12 -4
-19 -1 -8 3 -5 6 6 6 11 1 17 -2 13 -5z m53 -49 c0 -9 -9 -15 -22 -15 -22 1
-23 1 -4 15 25 19 26 19 26 0z m243 -79 c3 4 18 -3 33 -15 l27 -21 -32 0 c-17
0 -31 4 -31 9 0 5 -9 11 -20 14 -11 3 -20 10 -20 16 0 8 6 9 19 2 10 -6 21 -8
24 -5z m142 -66 c3 -6 -1 -7 -9 -4 -18 7 -21 14 -7 14 6 0 13 -4 16 -10z m60
-20 c4 -6 -5 -10 -19 -10 -14 0 -26 5 -26 10 0 6 9 10 19 10 11 0 23 -4 26
-10z m91 -45 c37 -19 17 -19 -27 0 -19 8 -27 14 -18 15 9 0 30 -7 45 -15z
m217 -102 c-7 -2 -19 -2 -25 0 -7 3 -2 5 12 5 14 0 19 -2 13 -5z m127 -54 c0
-5 10 -10 23 -10 14 -1 16 -3 6 -6 -20 -5 -69 13 -69 26 0 5 9 7 20 4 11 -3
20 -9 20 -14z m120 -45 c0 -2 -9 -4 -20 -4 -11 0 -20 4 -20 9 0 5 9 7 20 4 11
-3 20 -7 20 -9z m165 -74 c4 -6 -5 -10 -19 -10 -14 0 -26 5 -26 10 0 6 9 10
19 10 11 0 23 -4 26 -10z m65 -30 c12 -8 11 -10 -7 -10 -13 0 -23 5 -23 10 0
13 11 13 30 0z m83 -37 c-7 -2 -19 -2 -25 0 -7 3 -2 5 12 5 14 0 19 -2 13 -5z
m82 -33 c3 -5 -3 -10 -14 -10 -12 0 -21 5 -21 10 0 6 6 10 14 10 8 0 18 -4 21
-10z m90 -40 c4 -6 -5 -10 -19 -10 -14 0 -26 5 -26 10 0 6 9 10 19 10 11 0 23
-4 26 -10z m81 -41 c3 -5 -6 -9 -20 -9 -16 0 -26 6 -26 14 0 15 36 11 46 -5z
m74 -29 c0 -5 -7 -7 -15 -4 -8 4 -15 8 -15 10 0 2 7 4 15 4 8 0 15 -4 15 -10z
m61 -20 c5 0 9 -4 9 -10 0 -15 -20 -12 -38 7 -16 16 -16 16 1 10 10 -4 23 -7
28 -7z m104 -50 c4 -6 -5 -10 -19 -10 -14 0 -26 5 -26 10 0 6 9 10 19 10 11 0
23 -4 26 -10z m150 -70 c3 -5 -3 -10 -14 -10 -12 0 -21 5 -21 10 0 6 6 10 14
10 8 0 18 -4 21 -10z m344 -157 c2 -1 -9 -3 -26 -3 -21 0 -32 6 -36 19 -4 17
-3 17 27 3 17 -8 33 -17 35 -19z m-192 21 c-3 -3 -12 -4 -19 -1 -8 3 -5 6 6 6
11 1 17 -2 13 -5z m338 -75 c5 -5 0 -9 -14 -9 -12 0 -29 7 -38 15 -14 14 -13
15 13 9 16 -4 33 -11 39 -15z m115 -66 c0 -11 -4 -11 -20 -3 -11 6 -20 15 -20
19 0 5 9 7 20 4 11 -3 20 -12 20 -20z m320 -135 c0 -13 -32 -6 -37 9 -3 7 3 9
16 6 12 -3 21 -10 21 -15z m71 -26 c-7 -2 -18 1 -23 6 -8 8 -4 9 13 5 13 -4
18 -8 10 -11z m42 -19 c-7 -2 -19 -2 -25 0 -7 3 -2 5 12 5 14 0 19 -2 13 -5z
m237 -103 c12 -8 11 -10 -7 -10 -13 0 -23 5 -23 10 0 13 11 13 30 0z m127 -56
c-3 -3 -12 -4 -19 -1 -8 3 -5 6 6 6 11 1 17 -2 13 -5z m128 -54 c4 -6 -5 -10
-19 -10 -14 0 -26 5 -26 10 0 6 9 10 19 10 11 0 23 -4 26 -10z m-98 -26 c-3
-3 -12 -4 -19 -1 -8 3 -5 6 6 6 11 1 17 -2 13 -5z m183 -14 c11 -7 7 -10 -17
-10 -18 0 -33 5 -33 10 0 13 30 13 50 0z m140 -60 c0 -5 -7 -10 -15 -10 -8 0
-15 5 -15 10 0 6 7 10 15 10 8 0 15 -4 15 -10z m95 -40 c4 -6 -5 -10 -19 -10
-14 0 -26 5 -26 10 0 6 9 10 19 10 11 0 23 -4 26 -10z m150 -70 c3 -5 -3 -10
-14 -10 -12 0 -21 5 -21 10 0 6 6 10 14 10 8 0 18 -4 21 -10z m78 -37 c-7 -2
-19 -2 -25 0 -7 3 -2 5 12 5 14 0 19 -2 13 -5z m412 -174 c5 -5 0 -9 -14 -9
-12 0 -29 7 -38 15 -14 14 -13 15 13 9 16 -4 33 -11 39 -15z m115 -67 c0 -16
-35 1 -43 21 -4 12 -1 12 19 3 13 -6 24 -17 24 -24z m320 -134 c0 -13 -32 -6
-37 9 -3 7 3 9 16 6 12 -3 21 -10 21 -15z m100 -35 c25 -13 25 -13 3 -13 -13
0 -23 5 -23 10 0 6 -6 10 -14 10 -8 0 -18 4 -21 10 -7 11 14 4 55 -17z m247
-109 c-3 -3 -12 -4 -19 -1 -8 3 -5 6 6 6 11 1 17 -2 13 -5z m53 -49 c0 -9 -9
-15 -22 -15 -22 1 -23 1 -4 15 25 19 26 19 26 0z m77 -11 c-3 -3 -12 -4 -19
-1 -8 3 -5 6 6 6 11 1 17 -2 13 -5z m163 -75 c3 -3 19 -10 35 -14 l30 -9 -30
-4 c-16 -2 -31 1 -33 7 -2 6 -10 11 -17 11 -8 0 -19 9 -25 20 -11 20 -10 20
12 8 13 -7 25 -16 28 -19z m-133 -5 c-3 -3 -12 -4 -19 -1 -8 3 -5 6 6 6 11 1
17 -2 13 -5z m338 -75 c5 -5 0 -9 -14 -9 -12 0 -29 7 -38 15 -14 14 -13 15 13
9 16 -4 33 -11 39 -15z m80 -39 c4 -6 -5 -10 -19 -10 -14 0 -26 5 -26 10 0 6
9 10 19 10 11 0 23 -4 26 -10z m142 -66 c-3 -3 -12 -4 -19 -1 -8 3 -5 6 6 6
11 1 17 -2 13 -5z m86 -41 c-7 -2 -19 -2 -25 0 -7 3 -2 5 12 5 14 0 19 -2 13
-5z m92 -41 c-3 -3 -11 0 -18 7 -9 10 -8 11 6 5 10 -3 15 -9 12 -12z m68 -29
c-7 -2 -19 -2 -25 0 -7 3 -2 5 12 5 14 0 19 -2 13 -5z m130 -20 c-3 -7 -6 -13
-8 -13 -2 0 -5 6 -8 13 -3 8 1 14 8 14 7 0 11 -6 8 -14z m-68 -3 c3 -5 1 -10
-4 -10 -6 0 -11 5 -11 10 0 6 2 10 4 10 3 0 8 -4 11 -10z m105 -46 c-6 -6 -7
-14 -3 -17 10 -10 -10 -8 -27 3 -13 8 -12 10 3 10 11 0 17 5 14 13 -2 6 -10
11 -16 9 -7 -1 -10 2 -6 8 4 6 13 5 25 -2 13 -8 16 -16 10 -24z m26 -3 c-4 -5
-1 -11 5 -13 6 -2 -1 -9 -17 -16 -24 -12 -26 -11 -14 2 7 9 9 16 4 16 -5 0 -2
5 6 10 19 12 23 12 16 1z m187 -136 c-3 -8 -10 -15 -15 -15 -7 0 -6 5 1 13 6
8 7 18 3 22 -4 5 -2 5 5 1 7 -4 10 -13 6 -21z m-40 -9 c4 -10 1 -13 -9 -9 -7
3 -14 9 -14 14 0 14 17 10 23 -5z m34 -31 c0 -8 -4 -12 -9 -9 -4 3 -8 9 -8 15
0 5 4 9 8 9 5 0 9 -7 9 -15z"/>
<path d="M53360 14336 c0 -2 8 -10 18 -17 15 -13 16 -12 3 4 -13 16 -21 21
-21 13z"/>
<path d="M53320 14246 c7 -7 13 -7 20 0 6 6 3 10 -10 10 -13 0 -16 -4 -10 -10z"/>
<path d="M30150 13389 c0 -5 5 -7 10 -4 6 3 10 8 10 11 0 2 -4 4 -10 4 -5 0
-10 -5 -10 -11z"/>
<path d="M30028 13383 c7 -3 16 -2 19 1 4 3 -2 6 -13 5 -11 0 -14 -3 -6 -6z"/>
<path d="M29869 13363 c-13 -16 -12 -17 4 -4 9 7 17 15 17 17 0 8 -8 3 -21
-13z"/>
<path d="M29833 13333 c-17 -6 -17 -20 0 -26 8 -3 13 3 13 14 0 11 0 19 -1 18
0 0 -6 -3 -12 -6z"/>
<path d="M10850 13321 c0 -7 -4 -9 -10 -6 -6 4 -7 -1 -3 -11 4 -11 3 -15 -5
-10 -6 3 -14 1 -18 -5 -4 -8 -3 -9 4 -5 8 5 11 0 8 -16 -4 -30 30 -57 47 -38
8 8 8 11 1 7 -6 -4 -17 4 -24 17 -9 18 -9 28 0 46 6 12 9 24 6 28 -3 3 -6 0
-6 -7z"/>
<path d="M29778 13153 c2 -96 5 -174 7 -171 8 8 7 330 -2 339 -4 4 -7 -71 -5
-168z"/>
<path d="M29880 13310 c-9 -6 -10 -10 -3 -10 6 0 15 5 18 10 8 12 4 12 -15 0z"/>
<path d="M10927 13209 c7 -7 15 -10 18 -7 3 3 -2 9 -12 12 -14 6 -15 5 -6 -5z"/>
<path d="M10960 13195 c0 -10 9 -15 27 -15 29 0 29 2 -4 19 -19 10 -23 9 -23
-4z"/>
<path d="M11298 13043 c12 -2 32 -2 45 0 12 2 2 4 -23 4 -25 0 -35 -2 -22 -4z"/>
<path d="M11418 12973 c7 -3 16 -2 19 1 4 3 -2 6 -13 5 -11 0 -14 -3 -6 -6z"/>
<path d="M11516 12965 c-9 -26 23 -30 45 -6 l20 21 -30 0 c-17 0 -31 -6 -35
-15z"/>
<path d="M29836 12972 c-2 -4 4 -8 14 -8 10 0 16 4 14 8 -3 4 -9 8 -14 8 -5 0
-11 -4 -14 -8z"/>
<path d="M29885 12971 c3 -3 28 -5 55 -6 27 -1 47 1 44 4 -3 3 -28 6 -55 7
-27 0 -47 -2 -44 -5z"/>
<path d="M30006 12969 c4 -7 44 0 44 7 0 2 -11 3 -24 2 -14 -1 -23 -5 -20 -9z"/>
<path d="M11647 12889 c7 -7 15 -10 18 -7 3 3 -2 9 -12 12 -14 6 -15 5 -6 -5z"/>
<path d="M11680 12870 c0 -5 9 -10 21 -10 11 0 17 5 14 10 -3 6 -13 10 -21 10
-8 0 -14 -4 -14 -10z"/>
<path d="M12008 12733 c7 -3 16 -2 19 1 4 3 -2 6 -13 5 -11 0 -14 -3 -6 -6z"/>
<path d="M12045 12710 c3 -5 13 -10 21 -10 8 0 14 5 14 10 0 6 -9 10 -21 10
-11 0 -17 -4 -14 -10z"/>
<path d="M12138 12653 c7 -3 16 -2 19 1 4 3 -2 6 -13 5 -11 0 -14 -3 -6 -6z"/>
<path d="M12240 12635 c0 -10 9 -15 27 -15 29 0 29 2 -4 19 -19 10 -23 9 -23
-4z"/>
<path d="M12523 12522 c-52 -4 -56 -17 -9 -25 37 -6 76 1 76 13 0 12 -20 15
-67 12z"/>
<path d="M12728 12413 c7 -3 16 -2 19 1 4 3 -2 6 -13 5 -11 0 -14 -3 -6 -6z"/>
<path d="M12765 12390 c3 -5 13 -10 21 -10 8 0 14 5 14 10 0 6 -9 10 -21 10
-11 0 -17 -4 -14 -10z"/>
<path d="M12927 12329 c7 -7 15 -10 18 -7 3 3 -2 9 -12 12 -14 6 -15 5 -6 -5z"/>
<path d="M12978 12303 c12 -2 32 -2 45 0 12 2 2 4 -23 4 -25 0 -35 -2 -22 -4z"/>
<path d="M13323 12155 c16 -9 31 -14 35 -11 8 9 0 14 -33 21 l-30 6 28 -16z"/>
<path d="M13368 12093 c7 -3 16 -2 19 1 4 3 -2 6 -13 5 -11 0 -14 -3 -6 -6z"/>
<path d="M13647 12009 c7 -7 15 -10 18 -7 3 3 -2 9 -12 12 -14 6 -15 5 -6 -5z"/>
<path d="M13680 11990 c0 -5 9 -10 21 -10 11 0 17 5 14 10 -3 6 -13 10 -21 10
-8 0 -14 -4 -14 -10z"/>
<path d="M13825 11930 c11 -5 27 -9 35 -9 9 0 8 4 -5 9 -11 5 -27 9 -35 9 -9
0 -8 -4 5 -9z"/>
<path d="M14008 11853 c7 -3 16 -2 19 1 4 3 -2 6 -13 5 -11 0 -14 -3 -6 -6z"/>
<path d="M14045 11830 c3 -5 13 -10 21 -10 8 0 14 5 14 10 0 6 -9 10 -21 10
-11 0 -17 -4 -14 -10z"/>
<path d="M14138 11773 c7 -3 16 -2 19 1 4 3 -2 6 -13 5 -11 0 -14 -3 -6 -6z"/>
<path d="M14207 11769 c7 -7 15 -10 18 -7 3 3 -2 9 -12 12 -14 6 -15 5 -6 -5z"/>
<path d="M14240 11755 c0 -10 9 -15 27 -15 29 0 29 2 -4 19 -19 10 -23 9 -23
-4z"/>
<path d="M14728 11533 c7 -3 16 -2 19 1 4 3 -2 6 -13 5 -11 0 -14 -3 -6 -6z"/>
<path d="M14765 11510 c3 -5 13 -10 21 -10 8 0 14 5 14 10 0 6 -9 10 -21 10
-11 0 -17 -4 -14 -10z"/>
<path d="M55865 10595 c-6781 -486 -12331 -884 -12332 -884 -2 -1 15 -29 37
-63 70 -107 159 -294 200 -416 99 -295 107 -635 24 -942 -26 -97 -108 -315
-127 -338 -5 -7 -7 -15 -4 -19 4 -3 5561 391 12349 876 6789 485 12351 882
12360 881 18 0 63 122 98 271 114 486 69 916 -147 1397 l-55 122 -37 -1 c-20
-1 -5584 -399 -12366 -884z"/>
<path d="M14927 11449 c7 -7 15 -10 18 -7 3 3 -2 9 -12 12 -14 6 -15 5 -6 -5z"/>
<path d="M14978 11423 c12 -2 32 -2 45 0 12 2 2 4 -23 4 -25 0 -35 -2 -22 -4z"/>
<path d="M15298 11283 c12 -2 32 -2 45 0 12 2 2 4 -23 4 -25 0 -35 -2 -22 -4z"/>
<path d="M15644 11125 c11 -8 25 -15 30 -15 6 0 2 7 -8 15 -11 8 -25 15 -30
15 -6 0 -2 -7 8 -15z"/>
<path d="M15818 11053 c7 -3 16 -2 19 1 4 3 -2 6 -13 5 -11 0 -14 -3 -6 -6z"/>
<path d="M16008 10973 c7 -3 16 -2 19 1 4 3 -2 6 -13 5 -11 0 -14 -3 -6 -6z"/>
<path d="M16080 10970 c0 -5 -9 -10 -21 -10 -11 0 -17 -4 -14 -10 9 -15 27
-12 55 10 l25 20 -22 0 c-13 0 -23 -4 -23 -10z"/>
<path d="M16207 10889 c7 -7 15 -10 18 -7 3 3 -2 9 -12 12 -14 6 -15 5 -6 -5z"/>
<path d="M16240 10880 c0 -15 7 -20 25 -20 23 0 24 2 15 20 -6 11 -17 20 -25
20 -8 0 -15 -9 -15 -20z"/>
<path d="M16728 10653 c7 -3 16 -2 19 1 4 3 -2 6 -13 5 -11 0 -14 -3 -6 -6z"/>
<path d="M16765 10630 c3 -5 13 -10 21 -10 8 0 14 5 14 10 0 6 -9 10 -21 10
-11 0 -17 -4 -14 -10z"/>
<path d="M16927 10569 c7 -7 15 -10 18 -7 3 3 -2 9 -12 12 -14 6 -15 5 -6 -5z"/>
<path d="M16978 10543 c12 -2 32 -2 45 0 12 2 2 4 -23 4 -25 0 -35 -2 -22 -4z"/>
<path d="M37395 10185 c-1309 -145 -3082 -341 -3940 -435 -858 -94 -1857 -205
-2220 -246 -582 -65 -689 -77 -755 -83 -13 -1 -15 -28 -14 -178 l0 -178 -5
160 c-4 107 -10 159 -17 158 -6 -1 -11 4 -11 12 0 8 4 12 9 9 4 -3 8 0 8 6 0
6 -10 10 -22 8 -13 -2 -23 -8 -23 -15 0 -6 -3 -15 -7 -19 -5 -4 -8 0 -8 9 0
19 -35 23 -46 5 -4 -7 -3 -8 4 -4 7 4 12 2 12 -3 0 -16 -20 -13 -26 4 -4 8
-10 12 -15 9 -5 -3 -6 -10 -3 -16 4 -6 -2 -6 -15 1 -16 9 -21 9 -21 -1 0 -8
-3 -9 -8 -3 -4 6 -14 9 -22 9 -8 -1 -27 -2 -42 -3 l-28 -1 0 -209 0 -209 68 4
c62 5 107 10 107 14 0 1 125 11 148 11 9 0 17 4 17 8 0 4 15 5 32 3 29 -4 31
-3 20 11 -10 12 -10 17 -1 23 7 4 9 3 6 -3 -14 -22 18 -30 78 -22 33 5 67 9
75 10 28 1 8448 954 8957 1013 219 25 244 33 294 96 37 46 54 112 45 175 -6
40 -16 58 -51 92 l-42 43 -79 -1 c-44 -1 -1150 -120 -2459 -264z m-6792 -772
c-6 -16 -5 -16 10 -4 23 18 22 8 -2 -13 -17 -16 -18 -15 -16 6 3 26 3 28 10
28 2 0 1 -8 -2 -17z m-257 -385 c-9 -5 -14 -14 -10 -20 4 -7 9 -6 14 3 7 10
13 10 32 1 20 -10 21 -12 3 -11 -11 1 -22 0 -25 -1 -29 -11 -40 -6 -40 16 0
15 6 24 15 24 8 0 15 6 16 13 0 8 2 8 6 -2 3 -8 -2 -18 -11 -23z m89 22 c4 -6
11 -7 17 -4 7 4 8 2 4 -5 -6 -9 -11 -9 -22 0 -9 8 -14 8 -14 1 0 -6 8 -16 18
-22 14 -8 12 -9 -10 -6 -15 3 -35 10 -45 16 -16 10 -16 11 5 7 14 -4 22 0 22
9 0 16 16 19 25 4z"/>
<path d="M17310 10400 c40 -22 50 -24 50 -10 0 6 -9 10 -19 10 -11 0 -23 5
-26 10 -3 6 -14 10 -23 10 -10 -1 -3 -9 18 -20z"/>
<path d="M17738 10263 c7 -3 16 -2 19 1 4 3 -2 6 -13 5 -11 0 -14 -3 -6 -6z"/>
<path d="M17825 10130 c3 -5 8 -10 11 -10 2 0 4 5 4 10 0 6 -5 10 -11 10 -5 0
-7 -4 -4 -10z"/>
<path d="M18008 10093 c7 -3 16 -2 19 1 4 3 -2 6 -13 5 -11 0 -14 -3 -6 -6z"/>
<path d="M18080 10090 c0 -5 -9 -10 -21 -10 -11 0 -17 -4 -14 -10 9 -15 27
-12 55 10 l25 20 -22 0 c-13 0 -23 -4 -23 -10z"/>
<path d="M18207 10009 c7 -7 15 -10 18 -7 3 3 -2 9 -12 12 -14 6 -15 5 -6 -5z"/>
<path d="M18240 9995 c0 -10 9 -15 27 -15 29 0 29 2 -4 19 -19 10 -23 9 -23
-4z"/>
<path d="M18385 9910 c3 -5 8 -10 11 -10 2 0 4 5 4 10 0 6 -5 10 -11 10 -5 0
-7 -4 -4 -10z"/>
<path d="M18706 9771 c-4 -7 -5 -15 -2 -18 9 -9 19 4 14 18 -4 11 -6 11 -12 0z"/>
<path d="M18796 9765 c-9 -26 23 -30 45 -6 l20 21 -30 0 c-17 0 -31 -6 -35
-15z"/>
<path d="M18927 9689 c7 -7 15 -10 18 -7 3 3 -2 9 -12 12 -14 6 -15 5 -6 -5z"/>
<path d="M18960 9670 c0 -5 9 -10 21 -10 11 0 17 5 14 10 -3 6 -13 10 -21 10
-8 0 -14 -4 -14 -10z"/>
<path d="M19040 9635 c0 -8 7 -15 16 -15 14 0 14 3 4 15 -7 8 -14 15 -16 15
-2 0 -4 -7 -4 -15z"/>
<path d="M19105 9601 c-3 -5 -1 -12 5 -16 5 -3 10 1 10 9 0 18 -6 21 -15 7z"/>
<path d="M19310 9520 c40 -22 50 -24 50 -10 0 6 -9 10 -19 10 -11 0 -23 5 -26
10 -3 6 -14 10 -23 10 -10 -1 -3 -9 18 -20z"/>
<path d="M29953 9359 c-13 -5 -23 -11 -23 -13 0 -3 7 -3 15 0 10 4 13 0 10
-16 -4 -19 -2 -20 12 -8 14 11 16 11 11 -2 -4 -11 3 -15 28 -17 26 -1 32 1 27
14 -4 11 -2 14 5 9 7 -4 19 0 28 9 14 13 14 19 4 28 -10 9 -11 9 -6 0 6 -12
-9 -26 -32 -29 -7 -2 -11 3 -9 9 3 7 10 11 16 9 7 -1 10 2 7 7 -7 10 -31 9
-42 -2 -4 -4 -12 -3 -18 2 -6 5 -21 5 -33 0z m63 -18 c0 -11 -4 -17 -8 -15 -4
3 -8 -1 -8 -8 0 -8 -5 -6 -11 5 -6 9 -15 14 -21 11 -7 -5 -8 -2 -4 5 5 7 14
10 22 7 7 -3 16 -1 19 4 9 14 11 12 11 -9z"/>
<path d="M29869 9358 c-5 -15 -4 -50 1 -53 3 -2 6 9 6 26 0 24 -3 37 -7 27z"/>
<path d="M29784 9328 c-10 -13 -15 -20 -10 -16 5 4 15 3 22 -3 10 -8 11 -5 7
12 -5 17 -3 20 7 14 9 -5 11 -4 6 3 -9 16 -10 16 -32 -10z"/>
<path d="M29902 9345 c4 -4 3 -16 -3 -26 -5 -11 -7 -19 -5 -19 3 0 10 9 16 19
7 15 7 22 -2 27 -7 4 -10 4 -6 -1z"/>
<path d="M29784 9140 c0 -91 2 -128 3 -82 2 45 2 119 0 165 -1 45 -3 8 -3 -83z"/>
<path d="M19825 9250 c3 -5 8 -10 11 -10 2 0 4 5 4 10 0 6 -5 10 -11 10 -5 0
-7 -4 -4 -10z"/>
<path d="M20008 9213 c7 -3 16 -2 19 1 4 3 -2 6 -13 5 -11 0 -14 -3 -6 -6z"/>
<path d="M20045 9190 c3 -5 13 -10 21 -10 8 0 14 5 14 10 0 6 -9 10 -21 10
-11 0 -17 -4 -14 -10z"/>
<path d="M20207 9129 c7 -7 15 -10 18 -7 3 3 -2 9 -12 12 -14 6 -15 5 -6 -5z"/>
<path d="M20240 9115 c0 -10 9 -15 27 -15 29 0 29 2 -4 19 -19 10 -23 9 -23
-4z"/>
<path d="M29845 8972 c-2 -2 -1 -10 1 -17 4 -9 -1 -12 -14 -8 -11 2 -22 1 -25
-4 -3 -4 15 -8 40 -8 33 0 47 5 55 19 8 14 7 17 -1 12 -6 -4 -11 -3 -11 1 0 9
-37 12 -45 5z m38 -15 c4 3 7 1 7 -5 0 -17 -16 -15 -31 6 -12 15 -12 16 2 5 9
-7 19 -10 22 -6z"/>
<path d="M29950 8969 c0 -5 5 -7 10 -4 6 3 10 8 10 11 0 2 -4 4 -10 4 -5 0
-10 -5 -10 -11z"/>
<path d="M30011 8973 c-1 -17 16 -25 25 -12 4 7 3 9 -4 5 -5 -3 -13 0 -15 6
-4 9 -6 10 -6 1z"/>
<path d="M30050 8972 c0 -5 7 -9 15 -9 8 0 12 4 9 9 -3 4 -9 8 -15 8 -5 0 -9
-4 -9 -8z"/>
<path d="M20578 8963 c12 -2 32 -2 45 0 12 2 2 4 -23 4 -25 0 -35 -2 -22 -4z"/>
<path d="M29783 8949 c-2 -23 3 -25 10 -4 4 8 3 16 -1 19 -4 3 -9 -4 -9 -15z"/>
<path d="M29959 8950 c-6 -4 1 -7 15 -7 14 0 26 3 26 7 0 3 -7 7 -15 7 -8 0
-19 -4 -26 -7z"/>
<path d="M39051 8715 c-1127 -252 -1111 -248 -1111 -297 0 -23 35 -58 58 -58
9 0 507 -38 1107 -84 599 -47 1091 -84 1092 -83 1 1 6 46 12 99 14 121 14 237
1 353 -11 94 -57 302 -68 309 -4 2 -495 -106 -1091 -239z"/>
<path d="M20698 8893 c7 -3 16 -2 19 1 4 3 -2 6 -13 5 -11 0 -14 -3 -6 -6z"/>
<path d="M20796 8885 c-9 -26 23 -30 45 -6 l20 21 -30 0 c-17 0 -31 -6 -35
-15z"/>
<path d="M20927 8809 c7 -7 15 -10 18 -7 3 3 -2 9 -12 12 -14 6 -15 5 -6 -5z"/>
<path d="M20960 8790 c0 -5 9 -10 21 -10 11 0 17 5 14 10 -3 6 -13 10 -21 10
-8 0 -14 -4 -14 -10z"/>
<path d="M21211 8655 c0 -5 3 -16 8 -23 7 -11 9 -10 14 3 4 9 3 14 -2 10 -5
-3 -12 1 -14 7 -3 7 -6 9 -6 3z"/>
<path d="M21260 8651 c0 -6 5 -13 12 -17 7 -5 8 -3 3 6 -6 10 -4 12 9 7 10 -4
15 -3 11 3 -8 13 -35 13 -35 1z"/>
<path d="M21319 8658 c-1 -5 -2 -16 -3 -25 -1 -10 -5 -24 -10 -32 -6 -9 -5
-12 2 -7 6 3 13 2 17 -4 9 -15 25 -2 22 18 -3 20 -26 60 -28 50z m21 -58 c0
-5 -2 -10 -4 -10 -3 0 -8 5 -11 10 -3 6 -1 10 4 10 6 0 11 -4 11 -10z"/>
<path d="M21246 8622 c-3 -5 1 -9 9 -9 8 0 12 4 9 9 -3 4 -7 8 -9 8 -2 0 -6
-4 -9 -8z"/>
<path d="M21445 8570 c-3 -5 -1 -10 4 -10 6 0 11 5 11 10 0 6 -2 10 -4 10 -3
0 -8 -4 -11 -10z"/>
<path d="M21745 8480 c3 -5 8 -10 11 -10 2 0 4 5 4 10 0 6 -5 10 -11 10 -5 0
-7 -4 -4 -10z"/>
<path d="M22086 8412 c-3 -6 -1 -14 5 -17 14 -9 20 -2 10 14 -6 8 -11 9 -15 3z"/>
<path d="M22113 8376 c-3 -6 -3 -8 2 -4 4 4 13 3 20 -2 8 -7 12 -5 12 3 0 16
-25 18 -34 3z"/>
<path d="M22163 8375 c0 -8 7 -15 15 -15 12 0 12 3 2 15 -7 8 -13 15 -15 15
-1 0 -2 -7 -2 -15z"/>
</g>
</svg>
